<svg width="42" height="42" viewBox="0 0 44 46" fill="none" xmlns="http://www.w3.org/2000/svg">
<rect x="1.3432" y="4.97791" width="40" height="40" rx="20" stroke="#004DA1" stroke-width="2"/>
<g clip-path="url(#clip0_202_636)">
<path d="M26.8276 20.1967H24.683C24.6127 19.599 24.4428 19.0482 24.1733 18.5443C23.892 18.0287 23.5405 17.5804 23.1186 17.1996C22.6967 16.8187 22.2162 16.5228 21.6772 16.3119C21.1264 16.0892 20.5463 15.9779 19.937 15.9779C19.3276 15.9779 18.7475 16.0892 18.1967 16.3119C17.6577 16.5228 17.1772 16.8187 16.7553 17.1996C16.3334 17.5804 15.9819 18.0287 15.7006 18.5443C15.4311 19.0482 15.2612 19.599 15.1909 20.1967H13.0463C12.8471 20.1967 12.6801 20.264 12.5453 20.3988C12.4106 20.5336 12.3432 20.7006 12.3432 20.8998V33.2748C12.3432 33.474 12.4106 33.641 12.5453 33.7758C12.6801 33.9105 12.8471 33.9779 13.0463 33.9779H26.8276C27.0268 33.9779 27.1938 33.9105 27.3286 33.7758C27.4633 33.641 27.5307 33.474 27.5307 33.2748V20.8998C27.5307 20.7006 27.4633 20.5336 27.3286 20.3988C27.1938 20.264 27.0268 20.1967 26.8276 20.1967ZM19.937 17.3842C20.769 17.3842 21.4985 17.6537 22.1254 18.1927C22.7524 18.7318 23.1303 19.3998 23.2592 20.1967H16.6147C16.7436 19.3998 17.1215 18.7318 17.7485 18.1927C18.3754 17.6537 19.1049 17.3842 19.937 17.3842ZM26.1245 32.5717H13.7495V21.6029H15.1557V23.7123C15.1557 23.9115 15.2231 24.0785 15.3578 24.2133C15.4926 24.348 15.6596 24.4154 15.8588 24.4154C16.058 24.4154 16.225 24.348 16.3598 24.2133C16.4946 24.0785 16.562 23.9115 16.562 23.7123V21.6029H23.312V23.7123C23.312 23.9115 23.3793 24.0785 23.5141 24.2133C23.6489 24.348 23.8159 24.4154 24.0151 24.4154C24.2143 24.4154 24.3813 24.348 24.5161 24.2133C24.6508 24.0785 24.7182 23.9115 24.7182 23.7123V21.6029H26.1245V32.5717Z" fill="#004DA1"/>
</g>
<rect x="28.3432" y="0.977905" width="15" height="16" rx="7.5" fill="#004DA1"/>
<path d="M36.0899 13.0579C35.3699 13.0579 34.8099 12.8846 34.4099 12.5379C34.0165 12.1912 33.7732 11.7646 33.6799 11.2579H34.5499C34.6432 11.5646 34.8165 11.8112 35.0699 11.9979C35.3299 12.1846 35.6665 12.2779 36.0799 12.2779C36.5732 12.2779 36.9432 12.1546 37.1899 11.9079C37.4432 11.6612 37.5699 11.3512 37.5699 10.9779C37.5699 10.5646 37.4265 10.2479 37.1399 10.0279C36.8532 9.80791 36.4999 9.69791 36.0799 9.69791H35.4199V9.00791H36.0399C36.4399 9.00791 36.7799 8.91457 37.0599 8.72791C37.3399 8.54124 37.4799 8.23791 37.4799 7.8179C37.4799 7.43124 37.3499 7.12457 37.0899 6.8979C36.8299 6.67124 36.4865 6.55791 36.0599 6.55791C35.6599 6.55791 35.3432 6.65124 35.1099 6.83791C34.8832 7.02457 34.7365 7.26791 34.6699 7.56791H33.8299C33.9099 7.08791 34.1265 6.6779 34.4799 6.3379C34.8332 5.99124 35.3632 5.81791 36.0699 5.81791C36.5765 5.81791 36.9999 5.91124 37.3399 6.09791C37.6799 6.28457 37.9299 6.52791 38.0899 6.82791C38.2499 7.12124 38.3299 7.4379 38.3299 7.7779C38.3299 8.13791 38.2499 8.43457 38.0899 8.66791C37.9299 8.89457 37.7532 9.06457 37.5599 9.17791C37.3732 9.28457 37.2465 9.33791 37.1799 9.33791V9.39791C37.2665 9.40457 37.4065 9.45791 37.5999 9.55791C37.7999 9.65791 37.9832 9.83124 38.1499 10.0779C38.3232 10.3246 38.4099 10.6479 38.4099 11.0479C38.4099 11.4146 38.3265 11.7512 38.1599 12.0579C37.9932 12.3579 37.7332 12.6012 37.3799 12.7879C37.0332 12.9679 36.6032 13.0579 36.0899 13.0579Z" fill="white"/>
<defs>
<clipPath id="clip0_202_636">
<rect width="18" height="18" fill="white" transform="matrix(1 0 0 -1 12.3432 33.9779)"/>
</clipPath>
</defs>
</svg>
