<svg width="41" height="42" viewBox="0 0 41 42" fill="none" xmlns="http://www.w3.org/2000/svg">
<g clip-path="url(#clip0_202_84)">
<path d="M24.2695 13.2261C24.2174 13.0698 24.1328 12.9461 24.0156 12.855C23.8984 12.7638 23.7747 12.7052 23.6445 12.6792L20.246 12.1714L18.7226 9.12451C18.6445 8.96826 18.5468 8.85107 18.4296 8.77295C18.3124 8.69482 18.1757 8.65576 18.0195 8.65576C17.8632 8.65576 17.7265 8.69482 17.6093 8.77295C17.4921 8.85107 17.3945 8.96826 17.3163 9.12451L15.7929 12.1714L12.3945 12.6792C12.2382 12.7052 12.108 12.7638 12.0038 12.855C11.8997 12.9461 11.8216 13.0698 11.7695 13.2261C11.7174 13.3563 11.7109 13.493 11.7499 13.6362C11.789 13.7795 11.8606 13.9032 11.9648 14.0073L14.4257 16.4292L13.8398 19.7886C13.8137 19.9448 13.8333 20.0881 13.8984 20.2183C13.9635 20.3485 14.0481 20.4657 14.1523 20.5698C14.2304 20.6219 14.3085 20.661 14.3867 20.687C14.4648 20.7131 14.5429 20.7261 14.621 20.7261C14.6731 20.7261 14.7317 20.7131 14.7968 20.687C14.8619 20.661 14.9205 20.6349 14.9726 20.6089L18.0195 19.0073L21.0663 20.6089C21.1966 20.687 21.3333 20.7196 21.4765 20.7065C21.6197 20.6935 21.7564 20.6479 21.8867 20.5698C22.0169 20.4657 22.108 20.3485 22.1601 20.2183C22.2122 20.0881 22.2252 19.9448 22.1992 19.7886L21.6132 16.4292L24.0742 14.0073C24.1783 13.9032 24.2499 13.7795 24.289 13.6362C24.3281 13.493 24.3216 13.3563 24.2695 13.2261ZM20.246 15.5698C20.1419 15.674 20.0703 15.7847 20.0312 15.9019C19.9921 16.019 19.9856 16.1427 20.0117 16.2729L20.4023 18.4995L18.371 17.4448C18.2669 17.3927 18.1497 17.3667 18.0195 17.3667C17.8893 17.3667 17.7721 17.3927 17.6679 17.4448L15.6367 18.4995L16.0273 16.2729C16.0533 16.1427 16.0468 16.019 16.0078 15.9019C15.9687 15.7847 15.8971 15.674 15.7929 15.5698L14.1913 14.0073L16.4179 13.6948C16.5481 13.6688 16.6653 13.6167 16.7695 13.5386C16.8736 13.4604 16.9518 13.3693 17.0038 13.2651L18.0195 11.2339L19.0351 13.2651C19.0872 13.3693 19.1653 13.4604 19.2695 13.5386C19.3736 13.6167 19.4908 13.6688 19.621 13.6948L21.8476 14.0073L20.246 15.5698ZM35.5585 34.9839L29.1132 23.7339C30.1028 22.5099 30.871 21.1427 31.4179 19.6323C31.9648 18.1219 32.2382 16.5334 32.2382 14.8667C32.2382 12.9136 31.8606 11.0646 31.1054 9.31982C30.3762 7.60107 29.3671 6.09717 28.0781 4.80811C26.789 3.51904 25.2851 2.50993 23.5663 1.78076C21.8216 1.02555 19.9726 0.647949 18.0195 0.647949C16.0663 0.647949 14.2174 1.02555 12.4726 1.78076C10.7538 2.50993 9.24994 3.51904 7.96088 4.80811C6.67181 6.09717 5.6627 7.60107 4.93353 9.31982C4.17832 11.0646 3.80072 12.9136 3.80072 14.8667C3.80072 16.5334 4.07416 18.1219 4.62103 19.6323C5.16791 21.1427 5.93614 22.5099 6.92572 23.7339L0.480408 34.9839C0.402283 35.1141 0.36322 35.2508 0.36322 35.394C0.36322 35.5373 0.402283 35.674 0.480408 35.8042C0.558533 35.9344 0.66921 36.0256 0.812439 36.0776C0.955668 36.1297 1.10541 36.1558 1.26166 36.1558L6.30072 35.4526L8.21478 40.1792C8.26687 40.3094 8.35801 40.4201 8.48822 40.5112C8.61843 40.6024 8.74864 40.6479 8.87885 40.6479C8.90489 40.6479 8.91791 40.6479 8.91791 40.6479C8.91791 40.6479 8.93093 40.6479 8.95697 40.6479C9.08718 40.6479 9.21088 40.6154 9.32806 40.5503C9.44525 40.4852 9.54291 40.3875 9.62103 40.2573L16.1445 28.9683C16.457 28.9943 16.7695 29.0203 17.082 29.0464C17.3945 29.0724 17.707 29.0854 18.0195 29.0854C18.332 29.0854 18.6445 29.0724 18.957 29.0464C19.2695 29.0203 19.582 28.9943 19.8945 28.9683L26.4179 40.2573C26.496 40.3875 26.5937 40.4852 26.7109 40.5503C26.8281 40.6154 26.9518 40.6479 27.082 40.6479C27.108 40.6479 27.121 40.6479 27.121 40.6479C27.121 40.6479 27.1341 40.6479 27.1601 40.6479C27.2903 40.6479 27.4205 40.6024 27.5507 40.5112C27.6809 40.4201 27.7721 40.3094 27.8242 40.1792L29.7382 35.4526L34.7773 36.1558C34.9335 36.1558 35.0833 36.1297 35.2265 36.0776C35.3697 36.0256 35.4804 35.9344 35.5585 35.8042C35.6367 35.674 35.6757 35.5373 35.6757 35.394C35.6757 35.2508 35.6367 35.1141 35.5585 34.9839ZM9.07416 38.1089L7.66791 34.6714L8.91791 32.6011C9.02207 32.4188 9.04812 32.2235 8.99603 32.0151C8.94395 31.8068 8.82676 31.6506 8.64447 31.5464C8.46218 31.4422 8.26687 31.4097 8.05853 31.4487C7.8502 31.4878 7.69395 31.5985 7.58978 31.7808L6.30072 33.8901L2.58978 34.3589L8.01947 24.9448C8.90489 25.8302 9.89447 26.592 10.9882 27.23C12.082 27.868 13.2538 28.3433 14.5038 28.6558L9.07416 38.1089ZM18.0195 27.5229C16.2747 27.5229 14.6341 27.1974 13.0976 26.5464C11.5611 25.8693 10.22 24.9578 9.07416 23.812C7.92832 22.6662 7.01687 21.325 6.33978 19.7886C5.68874 18.2521 5.36322 16.6115 5.36322 14.8667C5.36322 13.1219 5.68874 11.4813 6.33978 9.94482C7.01687 8.40837 7.92832 7.06722 9.07416 5.92139C10.22 4.77555 11.5611 3.87712 13.0976 3.22607C14.6341 2.54899 16.2747 2.21045 18.0195 2.21045C19.7643 2.21045 21.4049 2.54899 22.9413 3.22607C24.4778 3.87712 25.8189 4.77555 26.9648 5.92139C28.1106 7.06722 29.0091 8.40837 29.6601 9.94482C30.3372 11.4813 30.6757 13.1219 30.6757 14.8667C30.6757 16.6115 30.3372 18.2521 29.6601 19.7886C29.0091 21.325 28.1106 22.6662 26.9648 23.812C25.8189 24.9578 24.4778 25.8693 22.9413 26.5464C21.4049 27.1974 19.7643 27.5229 18.0195 27.5229ZM29.7382 33.8901L28.4492 31.7808C28.345 31.5985 28.1887 31.4878 27.9804 31.4487C27.7721 31.4097 27.5768 31.4422 27.3945 31.5464C27.2122 31.6506 27.095 31.8068 27.0429 32.0151C26.9908 32.2235 27.0169 32.4188 27.121 32.6011L28.371 34.6714L26.9648 38.1089L21.5351 28.6558C22.7851 28.3433 23.957 27.868 25.0507 27.23C26.1445 26.592 27.1341 25.8302 28.0195 24.9448L33.4492 34.3589L29.7382 33.8901ZM18.0195 4.71045C17.1601 4.71045 16.3072 4.82113 15.4609 5.04248C14.6145 5.26384 13.8137 5.58284 13.0585 5.99951C12.8502 6.10368 12.72 6.25993 12.6679 6.46826C12.6158 6.67659 12.6419 6.88493 12.746 7.09326C12.8502 7.27555 13.0064 7.39274 13.2148 7.44482C13.4231 7.49691 13.6184 7.47087 13.8007 7.3667C14.4518 7.00212 15.1354 6.72868 15.8515 6.54639C16.5676 6.36409 17.2903 6.27295 18.0195 6.27295C19.1913 6.27295 20.3111 6.4943 21.3788 6.93701C22.4205 7.40576 23.3255 8.02425 24.0937 8.79248C24.8619 9.56071 25.4804 10.4657 25.9492 11.5073C26.3919 12.575 26.6132 13.6948 26.6132 14.8667C26.6132 15.5177 26.5416 16.1493 26.3984 16.7612C26.2551 17.3732 26.0533 17.9787 25.7929 18.5776C25.6887 18.7599 25.6757 18.9552 25.7538 19.1636C25.832 19.3719 25.9622 19.5151 26.1445 19.5933C26.1966 19.6193 26.2551 19.6388 26.3203 19.6519C26.3854 19.6649 26.4439 19.6714 26.496 19.6714C26.6262 19.6714 26.7564 19.6323 26.8867 19.5542C27.0169 19.4761 27.121 19.3719 27.1992 19.2417C27.5117 18.5646 27.7525 17.855 27.9218 17.1128C28.0911 16.3706 28.1757 15.6219 28.1757 14.8667C28.1757 13.4604 27.9153 12.1453 27.3945 10.9214C26.8476 9.69743 26.1119 8.62321 25.1874 7.69873C24.263 6.77425 23.1887 6.03857 21.9648 5.4917C20.7408 4.97087 19.4257 4.71045 18.0195 4.71045ZM25.2851 20.8433C25.1288 20.687 24.9466 20.6089 24.7382 20.6089C24.5299 20.6089 24.3476 20.687 24.1913 20.8433L24.1523 20.8823C24.0221 21.0386 23.957 21.2209 23.957 21.4292C23.957 21.6375 24.0351 21.8198 24.1913 21.9761C24.2695 22.0542 24.3541 22.1128 24.4453 22.1519C24.5364 22.1909 24.6341 22.2104 24.7382 22.2104C24.8424 22.2104 24.94 22.1909 25.0312 22.1519C25.1223 22.1128 25.207 22.0542 25.2851 21.9761L25.3242 21.937C25.4544 21.7808 25.5195 21.5985 25.5195 21.3901C25.5195 21.1818 25.4413 20.9995 25.2851 20.8433ZM23.2148 22.7183C23.1106 22.5099 22.9544 22.3797 22.746 22.3276C22.5377 22.2756 22.3424 22.3016 22.1601 22.4058C21.5351 22.7443 20.871 23.0047 20.1679 23.187C19.4648 23.3693 18.7486 23.4604 18.0195 23.4604C16.8476 23.4604 15.7278 23.2391 14.6601 22.7964C13.6184 22.3276 12.7135 21.7091 11.9453 20.9409C11.177 20.1727 10.5585 19.2677 10.0898 18.2261C9.64707 17.1584 9.42572 16.0386 9.42572 14.8667C9.42572 14.2417 9.49082 13.6297 9.62103 13.0308C9.75124 12.4318 9.94655 11.8589 10.207 11.312C10.2851 11.1037 10.2851 10.9019 10.207 10.7065C10.1288 10.5112 9.99864 10.3615 9.81635 10.2573C9.60801 10.1792 9.40619 10.1792 9.21088 10.2573C9.01556 10.3354 8.86582 10.4657 8.76166 10.6479C8.4752 11.325 8.25385 12.0151 8.0976 12.7183C7.94135 13.4214 7.86322 14.1375 7.86322 14.8667C7.86322 16.2729 8.12364 17.5881 8.64447 18.812C9.19135 20.036 9.92702 21.1102 10.8515 22.0347C11.776 22.9591 12.8502 23.6948 14.0742 24.2417C15.2981 24.7625 16.6132 25.0229 18.0195 25.0229C18.8788 25.0229 19.7252 24.9188 20.5585 24.7104C21.3919 24.5021 22.1731 24.1896 22.9023 23.7729C23.1106 23.6688 23.2408 23.5125 23.2929 23.3042C23.345 23.0959 23.3189 22.9006 23.2148 22.7183ZM11.6913 7.91357C11.5351 7.75732 11.3463 7.68571 11.1249 7.69873C10.9036 7.71175 10.7278 7.79639 10.5976 7.95264H10.5585C10.4283 8.10889 10.3632 8.29769 10.3632 8.51904C10.3632 8.7404 10.4413 8.9292 10.5976 9.08545C10.6757 9.13753 10.7604 9.18311 10.8515 9.22217C10.9426 9.26123 11.0403 9.28076 11.1445 9.28076C11.2486 9.28076 11.3528 9.26123 11.457 9.22217C11.5611 9.18311 11.6523 9.11149 11.7304 9.00732C11.8867 8.85107 11.9583 8.66227 11.9453 8.44092C11.9322 8.21956 11.8476 8.04378 11.6913 7.91357Z" fill="#65CEF5"/>
</g>
<defs>
<clipPath id="clip0_202_84">
<rect width="40" height="41" fill="white" transform="matrix(1 0 0 -1 0.36322 41.1479)"/>
</clipPath>
</defs>
</svg>
