<svg width="17" height="17" viewBox="0 0 17 17" fill="none" xmlns="http://www.w3.org/2000/svg">
<path d="M8.49323 0.977905C7.38906 0.977905 6.3526 1.18624 5.38385 1.60291C4.4151 2.02999 3.56875 2.60551 2.84479 3.32947C2.12083 4.05343 1.54531 4.89978 1.11823 5.86853C0.701558 6.83728 0.493225 7.87374 0.493225 8.97791C0.493225 10.0821 0.701558 11.1185 1.11823 12.0873C1.54531 13.056 2.12083 13.9024 2.84479 14.6263C3.56875 15.3503 4.4151 15.9258 5.38385 16.3529C6.3526 16.7696 7.38906 16.9779 8.49323 16.9779C9.59739 16.9779 10.6339 16.7696 11.6026 16.3529C12.5714 15.9258 13.4177 15.3503 14.1417 14.6263C14.8656 13.9024 15.4411 13.056 15.8682 12.0873C16.2849 11.1185 16.4932 10.0821 16.4932 8.97791C16.4932 7.87374 16.2849 6.83728 15.8682 5.86853C15.4411 4.89978 14.8656 4.05343 14.1417 3.32947C13.4177 2.60551 12.5714 2.02999 11.6026 1.60291C10.6339 1.18624 9.59739 0.977905 8.49323 0.977905ZM12.1182 10.0873H8.33698C8.33698 10.0873 8.33437 10.0873 8.32916 10.0873C8.32395 10.0873 8.31614 10.0873 8.30573 10.0873C8.30573 10.0873 8.30312 10.0873 8.29791 10.0873C8.2927 10.0873 8.2901 10.0873 8.2901 10.0873C8.1026 10.0873 7.94375 10.0196 7.81354 9.88416C7.68333 9.74874 7.61823 9.58728 7.61823 9.39978V3.89978C7.61823 3.7227 7.68333 3.56645 7.81354 3.43103C7.94375 3.29561 8.1026 3.22791 8.2901 3.22791C8.4776 3.22791 8.63645 3.29561 8.76666 3.43103C8.89687 3.56645 8.96198 3.7227 8.96198 3.89978V8.72791H12.1182C12.3057 8.72791 12.4646 8.79301 12.5948 8.92322C12.725 9.05343 12.7901 9.21228 12.7901 9.39978C12.7901 9.58728 12.725 9.74874 12.5948 9.88416C12.4646 10.0196 12.3057 10.0873 12.1182 10.0873Z" fill="#65CEF5"/>
</svg>
