<svg width="41" height="42" viewBox="0 0 41 42" fill="none" xmlns="http://www.w3.org/2000/svg">
<g clip-path="url(#clip0_202_90)">
<path d="M18.7908 27.796C18.921 27.6398 18.9861 27.451 18.9861 27.2296C18.9861 27.0083 18.921 26.8195 18.7908 26.6633C18.6346 26.507 18.4458 26.4289 18.2244 26.4289C18.0031 26.4289 17.8143 26.507 17.6581 26.6633C17.5018 26.8195 17.4237 27.0083 17.4237 27.2296C17.4237 27.451 17.5018 27.6398 17.6581 27.796C17.8143 27.9262 18.0031 27.9913 18.2244 27.9913C18.4458 27.9913 18.6346 27.9262 18.7908 27.796ZM15.0801 9.2422C15.0801 10.414 15.3014 11.5207 15.7441 12.5624C16.2128 13.63 16.8313 14.5479 17.5995 15.3161C18.3677 16.0843 19.2726 16.7028 20.3142 17.1715C21.3558 17.6142 22.4755 17.8355 23.6734 17.8355C24.8452 17.8355 25.9519 17.6142 26.9936 17.1715C28.0352 16.7028 28.9466 16.0843 29.7278 15.3161C30.509 14.5479 31.121 13.63 31.5637 12.5624C32.0324 11.5207 32.2668 10.414 32.2668 9.2422C32.2668 8.04433 32.0324 6.92459 31.5637 5.88298C31.121 4.84136 30.509 3.93645 29.7278 3.16826C28.9466 2.40007 28.0352 1.78161 26.9936 1.31288C25.9519 0.870193 24.8452 0.648849 23.6734 0.648849C22.4755 0.648849 21.3558 0.870193 20.3142 1.31288C19.2726 1.78161 18.3677 2.40007 17.5995 3.16826C16.8313 3.93645 16.2128 4.84136 15.7441 5.88298C15.3014 6.92459 15.0801 8.04433 15.0801 9.2422ZM30.7043 9.2422C30.7043 11.1692 30.0143 12.8228 28.6341 14.2029C27.254 15.583 25.6004 16.2731 23.6734 16.2731C21.7204 16.2731 20.0603 15.583 18.6932 14.2029C17.326 12.8228 16.6425 11.1692 16.6425 9.2422C16.6425 7.3152 17.326 5.66164 18.6932 4.28149C20.0603 2.90135 21.7204 2.21128 23.6734 2.21128C25.6004 2.21128 27.254 2.90135 28.6341 4.28149C30.0143 5.66164 30.7043 7.3152 30.7043 9.2422ZM9.3772 40.4126C9.53345 40.5689 9.72224 40.647 9.94358 40.647C10.1649 40.647 10.3537 40.5689 10.51 40.4126L14.2598 36.7018C14.5983 36.3633 14.8131 35.9792 14.9043 35.5496C14.9954 35.1199 14.9759 34.6967 14.8457 34.2801L15.666 33.4989C15.8743 33.2645 16.1152 33.0952 16.3886 32.9911C16.662 32.8869 16.955 32.8348 17.2675 32.8348H27.6576C28.569 32.8348 29.4479 32.6591 30.2942 32.3075C31.1405 31.956 31.9022 31.4677 32.5792 30.8427C32.6053 30.8167 32.8527 30.5172 33.3214 29.9444C33.7901 29.3715 35.8994 26.8455 39.6492 22.3666C40.1961 21.7156 40.4369 20.9604 40.3718 20.1011C40.3067 19.2417 39.9357 18.5256 39.2586 17.9527C38.6076 17.4059 37.8589 17.1715 37.0126 17.2496C36.1663 17.3278 35.4567 17.6793 34.8838 18.3043L30.2747 23.0697C29.9882 22.7051 29.6302 22.4187 29.2005 22.2103C28.7708 22.002 28.3216 21.8979 27.8529 21.8979H19.1424C18.5174 21.6374 17.8794 21.4421 17.2284 21.3119C16.5774 21.1817 15.9134 21.1166 15.2363 21.1166C13.3614 21.1166 11.6427 21.5398 10.0803 22.3861C8.51787 23.2324 7.29397 24.4759 6.40859 26.1164C6.04403 26.0383 5.67946 26.0513 5.31489 26.1555C4.95033 26.2596 4.62482 26.4549 4.33838 26.7414L0.627614 30.4912C0.471371 30.6474 0.39325 30.8297 0.39325 31.038C0.39325 31.2464 0.471371 31.4287 0.627614 31.5849L9.3772 40.4126ZM15.2363 22.6791C15.8352 22.6791 16.4211 22.7377 16.994 22.8548C17.5669 22.972 18.1268 23.1478 18.6736 23.3822C18.7257 23.4082 18.7778 23.4277 18.8299 23.4407C18.882 23.4538 18.934 23.4603 18.9861 23.4603H27.8529C28.2695 23.4603 28.6341 23.61 28.9466 23.9095C29.2591 24.2089 29.4153 24.58 29.4153 25.0227C29.4153 25.4394 29.2656 25.8039 28.9661 26.1164C28.6667 26.4289 28.2956 26.5851 27.8529 26.5851H21.486C21.2777 26.5851 21.0954 26.6633 20.9392 26.8195C20.7829 26.9757 20.7048 27.158 20.7048 27.3663C20.7048 27.5747 20.7829 27.757 20.9392 27.9132C21.0954 28.0694 21.2777 28.1476 21.486 28.1476H27.8529C28.7122 28.1476 29.4479 27.8416 30.0598 27.2296C30.6718 26.6177 30.9778 25.882 30.9778 25.0227C30.9778 24.9446 30.9778 24.873 30.9778 24.8079C30.9778 24.7428 30.9647 24.6712 30.9387 24.593C33.1782 22.3015 34.5909 20.8562 35.1768 20.2573C35.7627 19.6584 36.0556 19.3589 36.0556 19.3589C36.3421 19.0204 36.7001 18.8316 37.1298 18.7925C37.5595 18.7535 37.9436 18.8772 38.2821 19.1636C38.5946 19.4501 38.7704 19.8081 38.8094 20.2378C38.8485 20.6674 38.7248 21.0385 38.4383 21.351L31.4465 29.749C30.9257 30.2438 30.3398 30.6214 29.6887 30.8818C29.0377 31.1422 28.3607 31.2724 27.6576 31.2724H17.2675C16.7727 31.2724 16.2909 31.3636 15.8222 31.5458C15.3535 31.7281 14.9368 32.0015 14.5723 32.3661L13.9082 32.9911L7.77572 26.8976C8.50485 25.5435 9.51392 24.5019 10.8029 23.7728C12.0919 23.0436 13.5697 22.6791 15.2363 22.6791ZM5.43208 27.8741C5.56228 27.7439 5.71852 27.6658 5.9008 27.6398C6.08309 27.6137 6.25235 27.6528 6.40859 27.757C6.48671 27.783 6.75363 28.0369 7.20934 28.5186C7.66504 29.0004 9.65063 30.986 13.1661 34.4754C13.3223 34.6316 13.4005 34.8204 13.4005 35.0418C13.4005 35.2631 13.3223 35.4389 13.1661 35.5691L9.96311 38.7721L2.26816 31.038L5.43208 27.8741ZM22.736 4.55492V5.45331C22.2672 5.63559 21.8896 5.92204 21.6032 6.31264C21.3167 6.70325 21.1735 7.15896 21.1735 7.67977C21.1735 8.33078 21.4014 8.88414 21.8571 9.33985C22.3128 9.79556 22.8662 10.0234 23.5172 10.0234C23.7255 10.0234 23.9078 10.1015 24.064 10.2578C24.2203 10.414 24.2984 10.5963 24.2984 10.8046C24.2984 11.0129 24.2203 11.1952 24.064 11.3515C23.9078 11.5077 23.7255 11.5858 23.5172 11.5858C23.3349 11.5858 23.1591 11.5338 22.9898 11.4296C22.8206 11.3254 22.6578 11.1822 22.5016 10.9999C22.3714 10.8176 22.1956 10.72 21.9743 10.707C21.7529 10.694 21.5641 10.7525 21.4079 10.8827C21.2256 11.039 21.128 11.2213 21.1149 11.4296C21.1019 11.6379 21.1605 11.8332 21.2907 12.0155C21.499 12.2499 21.7269 12.4517 21.9743 12.6209C22.2217 12.7902 22.4755 12.9269 22.736 13.0311V13.9295C22.736 14.1378 22.8141 14.3201 22.9703 14.4763C23.1266 14.6326 23.3088 14.7107 23.5172 14.7107C23.7255 14.7107 23.9078 14.6326 24.064 14.4763C24.2203 14.3201 24.2984 14.1378 24.2984 13.9295V12.992C24.7411 12.8358 25.1121 12.5558 25.4116 12.1522C25.7111 11.7486 25.8608 11.2994 25.8608 10.8046C25.8608 10.1536 25.6329 9.60025 25.1772 9.14454C24.7215 8.68884 24.1682 8.46098 23.5172 8.46098C23.3088 8.46098 23.1266 8.38286 22.9703 8.22662C22.8141 8.07038 22.736 7.88809 22.736 7.67977C22.736 7.47145 22.8141 7.28916 22.9703 7.13292C23.1266 6.97668 23.3088 6.89856 23.5172 6.89856C23.6474 6.89856 23.7841 6.93111 23.9273 6.99621C24.0705 7.06131 24.2072 7.15896 24.3374 7.28916C24.4937 7.4454 24.6825 7.52353 24.9038 7.52353C25.1252 7.52353 25.314 7.4454 25.4702 7.28916C25.6004 7.13292 25.6655 6.94413 25.6655 6.72278C25.6655 6.50144 25.5874 6.32567 25.4311 6.19547C25.2489 5.98714 25.0601 5.8309 24.8648 5.72674C24.6695 5.62257 24.4807 5.53143 24.2984 5.45331V4.55492C24.2984 4.34659 24.2203 4.16431 24.064 4.00807C23.9078 3.85183 23.7255 3.7737 23.5172 3.7737C23.3088 3.7737 23.1266 3.85183 22.9703 4.00807C22.8141 4.16431 22.736 4.34659 22.736 4.55492Z" fill="#65CEF5"/>
</g>
<defs>
<clipPath id="clip0_202_90">
<rect width="39.92" height="41" fill="white" transform="matrix(1 0 0 -1 0.39325 41.1479)"/>
</clipPath>
</defs>
</svg>
