<svg width="16" height="21" viewBox="0 0 16 21" fill="none" xmlns="http://www.w3.org/2000/svg">
<path d="M12.121 4.73779C11.6653 4.12581 11.2226 3.5529 10.7929 3.01904C10.3502 2.48519 9.95632 2.01644 9.61127 1.61279C9.26622 1.20915 8.98952 0.890137 8.78119 0.655762C8.57286 0.421387 8.46218 0.304199 8.44916 0.304199C8.4101 0.252115 8.35801 0.213053 8.29291 0.187012C8.2278 0.160971 8.1627 0.147949 8.0976 0.147949C8.03249 0.147949 7.96739 0.160971 7.90228 0.187012C7.83718 0.213053 7.7851 0.252115 7.74603 0.304199C7.73301 0.304199 7.62233 0.421387 7.414 0.655762C7.20567 0.890137 6.92898 1.20915 6.58392 1.61279C6.23887 2.01644 5.84499 2.48519 5.40228 3.01904C4.9726 3.5529 4.52989 4.12581 4.07416 4.73779C3.46218 5.57113 2.92181 6.35238 2.45306 7.08154C1.99733 7.82373 1.61322 8.51709 1.30072 9.16162C0.98822 9.80615 0.753845 10.3953 0.597595 10.9292C0.441345 11.4761 0.36322 11.9709 0.36322 12.4136C0.36322 13.4813 0.565043 14.4839 0.968689 15.4214C1.37233 16.3589 1.92572 17.1792 2.62885 17.8823C3.33197 18.5854 4.15228 19.1388 5.08978 19.5425C6.02728 19.9461 7.02989 20.1479 8.0976 20.1479C9.1653 20.1479 10.1679 19.9461 11.1054 19.5425C12.0429 19.1388 12.8632 18.5854 13.5663 17.8823C14.2695 17.1792 14.8229 16.3589 15.2265 15.4214C15.6301 14.4839 15.832 13.4813 15.832 12.4136C15.832 11.9709 15.7538 11.4761 15.5976 10.9292C15.4413 10.3953 15.207 9.80615 14.8945 9.16162C14.582 8.51709 14.1979 7.82373 13.7421 7.08154C13.2734 6.35238 12.733 5.57113 12.121 4.73779ZM8.87885 17.6479C8.67051 17.687 8.46218 17.7196 8.25385 17.7456C8.04551 17.7716 7.83718 17.7847 7.62885 17.7847C6.88666 17.7847 6.18353 17.6414 5.51947 17.355C4.86843 17.0815 4.29877 16.7007 3.81049 16.2124C3.3222 15.7241 2.93483 15.1479 2.64838 14.4839C2.37494 13.8328 2.23822 13.1362 2.23822 12.394C2.23822 12.1857 2.28379 11.8895 2.37494 11.5054C2.46608 11.1213 2.6614 10.6297 2.96088 10.0308C2.98692 9.96566 3.03249 9.92008 3.0976 9.89404C3.1627 9.868 3.2278 9.86149 3.29291 9.87451C3.35801 9.90055 3.40684 9.93962 3.43939 9.9917C3.47194 10.0438 3.48822 10.1089 3.48822 10.187C3.4752 10.2391 3.46869 10.2944 3.46869 10.353C3.46869 10.4116 3.46869 10.4604 3.46869 10.4995C3.46869 11.3068 3.5989 12.075 3.85931 12.8042C4.13275 13.5203 4.51036 14.1714 4.99213 14.7573C5.4739 15.3433 6.0403 15.8446 6.69135 16.2612C7.35541 16.6649 8.07806 16.9448 8.85931 17.1011C8.92442 17.1141 8.9765 17.1466 9.01556 17.1987C9.05463 17.2508 9.08067 17.3094 9.09369 17.3745C9.09369 17.4396 9.0709 17.4982 9.02533 17.5503C8.97976 17.6024 8.93093 17.6349 8.87885 17.6479Z" fill="#65CEF5"/>
</svg>
