<svg width="41" height="42" viewBox="0 0 41 42" fill="none" xmlns="http://www.w3.org/2000/svg">
<g clip-path="url(#clip0_202_66)">
<path d="M11.6523 35.062C9.69916 34.4631 8.13015 33.3563 6.94525 31.7417C5.76036 30.1271 5.16791 28.3172 5.16791 26.312C5.16791 25.3224 5.32416 24.3654 5.63666 23.4409C5.94916 22.5164 6.39187 21.6506 6.96478 20.8433C6.99082 20.8433 7.01036 20.8302 7.02338 20.8042C7.0364 20.7782 7.04291 20.7521 7.04291 20.7261C7.14707 20.5438 7.1601 20.3485 7.08197 20.1401C7.00385 19.9318 6.87364 19.7886 6.69135 19.7104C6.50905 19.6063 6.32676 19.5802 6.14447 19.6323C5.96218 19.6844 5.81895 19.7886 5.71478 19.9448C5.0377 20.8563 4.51687 21.8524 4.15228 22.9331C3.7877 24.0138 3.60541 25.1401 3.60541 26.312C3.60541 27.4839 3.7877 28.6167 4.15228 29.7104C4.51687 30.8042 5.05072 31.8068 5.75385 32.7183C6.43093 33.6297 7.23171 34.4175 8.15619 35.0815C9.08067 35.7456 10.0898 36.2469 11.1835 36.5854C11.2096 36.5854 11.2421 36.5854 11.2812 36.5854C11.3203 36.5854 11.3658 36.5854 11.4179 36.5854C11.5742 36.5854 11.7239 36.5399 11.8671 36.4487C12.0104 36.3576 12.108 36.2209 12.1601 36.0386C12.2122 35.8302 12.1861 35.6349 12.082 35.4526C11.9778 35.2703 11.8346 35.1401 11.6523 35.062ZM31.6913 18.9683C31.6913 18.2131 31.5807 17.4839 31.3593 16.7808C31.138 16.0776 30.8059 15.4266 30.3632 14.8276L25.4023 7.48389C25.3242 7.37972 25.233 7.29509 25.1288 7.22998C25.0247 7.16488 24.9075 7.13232 24.7773 7.13232C24.6471 7.13232 24.5234 7.16488 24.4062 7.22998C24.289 7.29509 24.1913 7.37972 24.1132 7.48389L22.0038 10.5698L15.5585 0.999512C15.4804 0.895344 15.3828 0.810711 15.2656 0.745605C15.1484 0.6805 15.0247 0.647949 14.8945 0.647949C14.7643 0.647949 14.6471 0.6805 14.5429 0.745605C14.4387 0.810711 14.3476 0.895344 14.2695 0.999512L3.17572 17.4448C2.23822 18.7209 1.5351 20.0881 1.06635 21.5464C0.597595 23.0047 0.36322 24.5151 0.36322 26.0776C0.36322 28.0828 0.740824 29.9709 1.49603 31.7417C2.25124 33.5125 3.2864 35.0555 4.6015 36.3706C5.91661 37.6857 7.45957 38.7339 9.23041 39.5151C11.0012 40.2703 12.8893 40.6479 14.8945 40.6479C16.9257 40.6479 18.8137 40.2703 20.5585 39.5151C22.3294 38.7339 23.8788 37.6857 25.207 36.3706C26.5351 35.0555 27.5768 33.5125 28.332 31.7417C29.0872 29.9709 29.4648 28.0828 29.4648 26.0776C29.4648 25.7651 29.4583 25.4461 29.4453 25.1206C29.4322 24.7951 29.3997 24.4761 29.3476 24.1636C30.0768 23.5386 30.6497 22.7703 31.0663 21.8589C31.483 20.9474 31.6913 19.9839 31.6913 18.9683ZM24.7773 9.31982L29.0742 15.7261C29.0742 15.7261 29.0742 15.7326 29.0742 15.7456C29.0742 15.7586 29.0872 15.7651 29.1132 15.7651C29.4518 16.2339 29.7057 16.7352 29.8749 17.269C30.0442 17.8029 30.1288 18.3693 30.1288 18.9683C30.1288 20.4526 29.608 21.7157 28.5663 22.7573C27.5247 23.799 26.2617 24.3198 24.7773 24.3198C23.2929 24.3198 22.0234 23.799 20.9687 22.7573C19.914 21.7157 19.3867 20.4526 19.3867 18.9683C19.3867 18.3693 19.4713 17.8029 19.6406 17.269C19.8098 16.7352 20.0768 16.2339 20.4413 15.7651C20.4413 15.7651 20.4413 15.7586 20.4413 15.7456C20.4413 15.7326 20.4413 15.7261 20.4413 15.7261L22.6679 12.4058L24.7773 9.31982ZM27.9023 26.0776C27.9023 27.8745 27.5637 29.5672 26.8867 31.1558C26.2096 32.7183 25.2786 34.092 24.0937 35.2769C22.9088 36.4618 21.5351 37.3927 19.9726 38.0698C18.3841 38.7469 16.6913 39.0854 14.8945 39.0854C13.1236 39.0854 11.4439 38.7469 9.85541 38.0698C8.26687 37.3927 6.88666 36.4618 5.71478 35.2769C4.54291 34.092 3.61843 32.7183 2.94135 31.1558C2.26426 29.5672 1.92572 27.8745 1.92572 26.0776C1.92572 24.6714 2.14056 23.3172 2.57025 22.0151C2.99994 20.7131 3.61843 19.5021 4.42572 18.3823C4.45176 18.3563 4.46478 18.3433 4.46478 18.3433L14.8945 2.83545L21.0663 11.9761L19.1523 14.8276C18.7096 15.4266 18.3775 16.0776 18.1562 16.7808C17.9348 17.4839 17.8242 18.2131 17.8242 18.9683C17.8242 20.8693 18.5012 22.5034 19.8554 23.8706C21.2096 25.2378 22.8502 25.9214 24.7773 25.9214C25.3242 25.9214 25.858 25.8563 26.3788 25.7261C26.8997 25.5959 27.3945 25.4136 27.8632 25.1792C27.8893 25.3094 27.9023 25.4526 27.9023 25.6089C27.9023 25.7651 27.9023 25.9214 27.9023 26.0776ZM22.0038 18.7729C22.0038 18.5646 22.0234 18.3693 22.0624 18.187C22.1015 18.0047 22.1601 17.8354 22.2382 17.6792C22.3163 17.4709 22.3163 17.269 22.2382 17.0737C22.1601 16.8784 22.0299 16.7287 21.8476 16.6245C21.6393 16.5464 21.4309 16.5464 21.2226 16.6245C21.0143 16.7026 20.871 16.8459 20.7929 17.0542C20.6627 17.3146 20.5716 17.5881 20.5195 17.8745C20.4674 18.161 20.4413 18.4604 20.4413 18.7729C20.4413 19.4761 20.6041 20.1401 20.9296 20.7651C21.2551 21.3901 21.7174 21.8979 22.3163 22.2886C22.3945 22.3407 22.4661 22.3797 22.5312 22.4058C22.5963 22.4318 22.6679 22.4448 22.746 22.4448C22.8762 22.4448 22.9999 22.4123 23.1171 22.3472C23.2343 22.2821 23.332 22.1974 23.4101 22.0933C23.5403 21.911 23.5794 21.7091 23.5273 21.4878C23.4752 21.2664 23.358 21.1037 23.1757 20.9995C22.8111 20.7391 22.5247 20.4136 22.3163 20.0229C22.108 19.6323 22.0038 19.2157 22.0038 18.7729ZM14.5429 36.1558C14.4387 35.8953 14.2434 35.7391 13.957 35.687C13.6705 35.6349 13.4361 35.7131 13.2538 35.9214C13.0455 36.1297 12.9869 36.3836 13.0781 36.6831C13.1692 36.9826 13.358 37.1584 13.6445 37.2104C13.957 37.2886 14.2174 37.2039 14.4257 36.9565C14.6341 36.7091 14.6731 36.4422 14.5429 36.1558ZM24.3476 22.9917C24.608 23.174 24.8749 23.1935 25.1484 23.0503C25.4218 22.9071 25.5585 22.6792 25.5585 22.3667C25.5585 22.0542 25.4218 21.8198 25.1484 21.6636C24.8749 21.5073 24.608 21.5203 24.3476 21.7026C24.1132 21.8589 23.996 22.0802 23.996 22.3667C23.996 22.6532 24.1132 22.8615 24.3476 22.9917Z" fill="#65CEF5"/>
</g>
<defs>
<clipPath id="clip0_202_66">
<rect width="40" height="41" fill="white" transform="matrix(1 0 0 -1 0.36322 41.1479)"/>
</clipPath>
</defs>
</svg>
