<svg width="15" height="15" viewBox="0 0 15 15" fill="none" xmlns="http://www.w3.org/2000/svg">
<g clip-path="url(#clip0_202_149)">
<path d="M14.4561 7.50671L1.45416 1.50476C1.3539 1.45919 1.24681 1.44779 1.13287 1.47058C1.01894 1.49337 0.925517 1.55033 0.8526 1.64148C0.779683 1.73263 0.743225 1.83516 0.743225 1.9491C0.743225 2.06303 0.775126 2.16557 0.838928 2.25671L5.11823 7.95789L0.838928 13.6591C0.775126 13.7502 0.743225 13.8527 0.743225 13.9667C0.743225 14.0806 0.779683 14.1831 0.8526 14.2743C0.898173 14.329 0.957418 14.3723 1.03033 14.4042C1.10325 14.4361 1.17617 14.452 1.24908 14.452C1.27643 14.452 1.30833 14.4497 1.34479 14.4452C1.38125 14.4406 1.4177 14.4292 1.45416 14.411L14.4561 8.40906C14.5381 8.3726 14.6065 8.31335 14.6612 8.23132C14.7159 8.14929 14.7432 8.05815 14.7432 7.95789C14.7432 7.85763 14.7159 7.76648 14.6612 7.68445C14.6065 7.60242 14.5381 7.54317 14.4561 7.50671Z" fill="#151515"/>
</g>
<defs>
<clipPath id="clip0_202_149">
<rect width="14" height="14" fill="white" transform="matrix(1 0 0 -1 0.743225 14.9579)"/>
</clipPath>
</defs>
</svg>
