<svg width="14" height="17" viewBox="0 0 14 17" fill="none" xmlns="http://www.w3.org/2000/svg">
<path d="M12.1113 3.77478C11.8197 3.32686 11.4811 2.92582 11.0957 2.57166C10.7103 2.22791 10.291 1.93884 9.83791 1.70447C9.38478 1.47009 8.90822 1.29041 8.40822 1.16541C7.8978 1.04041 7.37176 0.977905 6.8301 0.977905C6.28843 0.977905 5.76239 1.04041 5.25197 1.16541C4.75197 1.29041 4.27541 1.47009 3.82228 1.70447C3.36916 1.93884 2.94468 2.22791 2.54885 2.57166C2.16343 2.92582 1.81968 3.32686 1.5176 3.77478C1.21551 4.21228 0.97072 4.67582 0.78322 5.16541C0.606137 5.65499 0.483741 6.15499 0.416033 6.66541C0.348324 7.17582 0.34572 7.68624 0.40822 8.19666C0.47072 8.71749 0.59572 9.21749 0.78322 9.69666C0.87697 9.95707 1.00457 10.2201 1.16603 10.4857C1.32749 10.7513 1.50718 11.0039 1.7051 11.2435L6.40822 16.7904C6.47072 16.8425 6.53062 16.8868 6.58791 16.9232C6.6452 16.9597 6.71551 16.9779 6.79885 16.9779C6.88218 16.9779 6.9551 16.9597 7.0176 16.9232C7.0801 16.8868 7.13739 16.8425 7.18947 16.7904L11.9238 11.2435C12.1218 11.0039 12.3014 10.7539 12.4629 10.4935C12.6244 10.2331 12.752 9.96749 12.8457 9.69666C13.0332 9.21749 13.1582 8.71749 13.2207 8.19666C13.2832 7.68624 13.2806 7.17582 13.2129 6.66541C13.1452 6.15499 13.0228 5.65499 12.8457 5.16541C12.6582 4.67582 12.4134 4.21228 12.1113 3.77478ZM6.8301 10.3529C6.02801 10.3529 5.34051 10.0664 4.7676 9.49353C4.19468 8.92061 3.90822 8.23311 3.90822 7.43103C3.90822 6.62895 4.19468 5.94145 4.7676 5.36853C5.34051 4.79561 6.02801 4.50916 6.8301 4.50916C7.62176 4.50916 8.30666 4.79561 8.88478 5.36853C9.46291 5.94145 9.75197 6.62895 9.75197 7.43103C9.75197 8.23311 9.46551 8.92061 8.8926 9.49353C8.31968 10.0664 7.63218 10.3529 6.8301 10.3529Z" fill="#65CEF5"/>
</svg>
