<svg width="17" height="12" viewBox="0 0 17 12" fill="none" xmlns="http://www.w3.org/2000/svg">
<path d="M7.56195 5.89978C7.77028 6.0352 8.0307 6.10291 8.3432 6.10291C8.6557 6.10291 8.91612 6.0352 9.12445 5.89978L16.2495 1.14978C16.1349 0.80603 15.9291 0.527385 15.6323 0.313843C15.3354 0.100301 14.9995 -0.00646973 14.6245 -0.00646973H2.06195C1.68695 -0.00646973 1.35101 0.100301 1.05414 0.313843C0.757263 0.527385 0.551534 0.80603 0.436951 1.14978L7.56195 5.89978ZM9.64008 6.68103C9.46299 6.79561 9.26247 6.88416 9.03851 6.94666C8.81456 7.00916 8.58278 7.04041 8.3432 7.04041C8.10362 7.04041 7.87185 7.00916 7.64789 6.94666C7.42393 6.88416 7.22341 6.79561 7.04633 6.68103L0.343201 2.21228V10.2435C0.343201 10.7227 0.512472 11.1289 0.851013 11.4623C1.18955 11.7956 1.5932 11.9623 2.06195 11.9623H14.6245C15.0932 11.9623 15.4968 11.7956 15.8354 11.4623C16.1739 11.1289 16.3432 10.7227 16.3432 10.2435V2.21228L9.64008 6.68103Z" fill="#65CEF5"/>
</svg>
