<svg width="17" height="17" viewBox="0 0 17 17" fill="none" xmlns="http://www.w3.org/2000/svg">
<g clip-path="url(#clip0_202_614)">
<path d="M13.0507 6.49357C13.0507 6.79565 12.944 7.05607 12.7304 7.27482C12.5169 7.49357 12.2591 7.60294 11.957 7.60294C11.6445 7.60294 11.3815 7.49357 11.1679 7.27482C10.9544 7.05607 10.8476 6.79565 10.8476 6.49357C10.8476 6.19148 10.9544 5.93107 11.1679 5.71232C11.3815 5.49357 11.6445 5.38419 11.957 5.38419C12.2591 5.38419 12.5169 5.49357 12.7304 5.71232C12.944 5.93107 13.0507 6.19148 13.0507 6.49357ZM16.3632 6.49357C16.3632 6.79565 16.2565 7.05607 16.0429 7.27482C15.8294 7.49357 15.5663 7.60294 15.2538 7.60294C14.9518 7.60294 14.694 7.49357 14.4804 7.27482C14.2669 7.05607 14.1601 6.79565 14.1601 6.49357C14.1601 6.19148 14.2669 5.93107 14.4804 5.71232C14.694 5.49357 14.9518 5.38419 15.2538 5.38419C15.5663 5.38419 15.8294 5.49357 16.0429 5.71232C16.2565 5.93107 16.3632 6.19148 16.3632 6.49357ZM9.73822 6.49357C9.73822 6.79565 9.63145 7.05607 9.41791 7.27482C9.20437 7.49357 8.94655 7.60294 8.64447 7.60294C8.33197 7.60294 8.06895 7.49357 7.85541 7.27482C7.64187 7.05607 7.5351 6.79565 7.5351 6.49357C7.5351 6.19148 7.64187 5.93107 7.85541 5.71232C8.06895 5.49357 8.33197 5.38419 8.64447 5.38419C8.94655 5.38419 9.20437 5.49357 9.41791 5.71232C9.63145 5.93107 9.73822 6.19148 9.73822 6.49357ZM6.98822 10.3529C6.2278 9.59253 5.7226 8.86857 5.4726 8.18107C5.2226 7.49357 5.07676 6.99357 5.0351 6.68107C5.02468 6.59773 5.0351 6.517 5.06635 6.43888C5.0976 6.36075 5.13926 6.29044 5.19135 6.22794L6.42572 4.99357C6.51947 4.89982 6.57416 4.79044 6.58978 4.66544C6.60541 4.54044 6.57676 4.42065 6.50385 4.30607L4.5351 1.25919C4.46218 1.13419 4.35801 1.05346 4.2226 1.017C4.08718 0.980547 3.95697 0.993567 3.83197 1.05607L0.675721 2.54044C0.571554 2.59253 0.490825 2.66805 0.433533 2.767C0.376242 2.86596 0.352804 2.97273 0.363221 3.08732C0.404887 3.48315 0.493429 4.00919 0.628846 4.66544C0.764262 5.32169 0.998637 6.05867 1.33197 6.87638C1.6653 7.69409 2.12364 8.56648 2.70697 9.49357C3.30072 10.4311 4.07155 11.3738 5.01947 12.3217C5.96739 13.2696 6.90489 14.0404 7.83197 14.6342C8.76947 15.2175 9.64708 15.6759 10.4648 16.0092C11.2825 16.3425 12.0195 16.5769 12.6757 16.7123C13.332 16.8477 13.858 16.9363 14.2538 16.9779C14.3684 16.9884 14.4752 16.9649 14.5742 16.9076C14.6731 16.8503 14.7486 16.7696 14.8007 16.6654L16.2851 13.5092C16.3476 13.3842 16.3606 13.254 16.3242 13.1186C16.2877 12.9832 16.207 12.879 16.082 12.8061L13.0351 10.8373C12.9205 10.7644 12.8007 10.7358 12.6757 10.7514C12.5507 10.767 12.4413 10.8217 12.3476 10.9154L11.1132 12.1498C11.0507 12.2019 10.9804 12.2436 10.9023 12.2748C10.8242 12.3061 10.7434 12.3165 10.6601 12.3061C10.3476 12.2644 9.8476 12.1186 9.1601 11.8686C8.4726 11.6186 7.74864 11.1134 6.98822 10.3529Z" fill="#65CEF5"/>
</g>
<defs>
<clipPath id="clip0_202_614">
<rect width="16" height="16" fill="white" transform="matrix(1 0 0 -1 0.36322 16.9779)"/>
</clipPath>
</defs>
</svg>
