<svg width="140" height="140" viewBox="0 0 140 140" fill="none" xmlns="http://www.w3.org/2000/svg">
<g filter="url(#filter0_d_202_126)">
<rect x="42.1132" y="42.168" width="55" height="55" rx="27.5" fill="white" shape-rendering="crispEdges"/>
<g clip-path="url(#clip0_202_126)">
<path d="M77.3199 69.2249V71.3267C77.3199 71.6186 77.2177 71.8667 77.0133 72.0711C76.809 72.2754 76.5609 72.3776 76.269 72.3776H71.715V76.9315C71.715 77.2234 71.6129 77.4716 71.4085 77.6759C71.2042 77.8803 70.9561 77.9824 70.6641 77.9824H68.5623C68.2704 77.9824 68.0223 77.8803 67.8179 77.6759C67.6136 77.4716 67.5114 77.2234 67.5114 76.9315V72.3776H62.9575C62.6656 72.3776 62.4175 72.2754 62.2131 72.0711C62.0088 71.8667 61.9066 71.6186 61.9066 71.3267V69.2249C61.9066 68.933 62.0088 68.6848 62.2131 68.4805C62.4175 68.2762 62.6656 68.174 62.9575 68.174H67.5114V63.6201C67.5114 63.3282 67.6136 63.08 67.8179 62.8757C68.0223 62.6713 68.2704 62.5692 68.5623 62.5692H70.6641C70.9561 62.5692 71.2042 62.6713 71.4085 62.8757C71.6129 63.08 71.715 63.3282 71.715 63.6201V68.174H76.269C76.5609 68.174 76.809 68.2762 77.0133 68.4805C77.2177 68.6848 77.3199 68.933 77.3199 69.2249Z" fill="#65CEF5"/>
</g>
<rect x="30.6132" y="30.668" width="78" height="78" rx="39" stroke="#D1D9DD"/>
</g>
<defs>
<filter id="filter0_d_202_126" x="0.11322" y="0.167969" width="139" height="139" filterUnits="userSpaceOnUse" color-interpolation-filters="sRGB">
<feFlood flood-opacity="0" result="BackgroundImageFix"/>
<feColorMatrix in="SourceAlpha" type="matrix" values="0 0 0 0 0 0 0 0 0 0 0 0 0 0 0 0 0 0 127 0" result="hardAlpha"/>
<feOffset/>
<feGaussianBlur stdDeviation="15"/>
<feComposite in2="hardAlpha" operator="out"/>
<feColorMatrix type="matrix" values="0 0 0 0 0 0 0 0 0 0 0 0 0 0 0 0 0 0 0.1 0"/>
<feBlend mode="normal" in2="BackgroundImageFix" result="effect1_dropShadow_202_126"/>
<feBlend mode="normal" in="SourceGraphic" in2="effect1_dropShadow_202_126" result="shape"/>
</filter>
<clipPath id="clip0_202_126">
<rect width="15.72" height="20" fill="white" transform="matrix(1 0 0 -1 61.7532 81.168)"/>
</clipPath>
</defs>
</svg>
