<svg width="16" height="17" viewBox="0 0 16 17" fill="none" xmlns="http://www.w3.org/2000/svg">
<path d="M15.5463 15.556L11.7495 11.5873C12.239 11.0039 12.614 10.3581 12.8745 9.64978C13.1349 8.94145 13.2651 8.20186 13.2651 7.43103C13.2651 6.54561 13.0932 5.71228 12.7495 4.93103C12.4057 4.13936 11.9422 3.45186 11.3588 2.86853C10.7755 2.2852 10.0932 1.82686 9.31195 1.49353C8.5307 1.14978 7.69216 0.977905 6.79633 0.977905C5.91091 0.977905 5.07237 1.14978 4.2807 1.49353C3.49945 1.82686 2.81716 2.2852 2.23383 2.86853C1.65049 3.45186 1.18695 4.13936 0.843201 4.93103C0.509867 5.71228 0.343201 6.54561 0.343201 7.43103C0.343201 8.32686 0.509867 9.16541 0.843201 9.94666C1.18695 10.7279 1.65049 11.4128 2.23383 12.0013C2.81716 12.5899 3.49945 13.0508 4.2807 13.3842C5.07237 13.7279 5.91091 13.8998 6.79633 13.8998C7.46299 13.8998 8.11143 13.8008 8.74164 13.6029C9.37185 13.405 9.95778 13.1133 10.4995 12.7279L14.3432 16.7123C14.4161 16.7956 14.5047 16.8607 14.6088 16.9076C14.713 16.9545 14.8224 16.9779 14.937 16.9779C15.0515 16.9779 15.1583 16.9571 15.2573 16.9154C15.3562 16.8737 15.4474 16.8164 15.5307 16.7435C15.6974 16.5769 15.7833 16.3789 15.7885 16.1498C15.7937 15.9206 15.713 15.7227 15.5463 15.556ZM6.79633 2.66541C7.45258 2.66541 8.07237 2.79041 8.6557 3.04041C9.23903 3.29041 9.74685 3.63155 10.1791 4.06384C10.6114 4.49613 10.9526 5.00395 11.2026 5.58728C11.4526 6.1602 11.5776 6.77478 11.5776 7.43103C11.5776 8.0977 11.4526 8.71749 11.2026 9.29041C10.9526 9.87374 10.6114 10.3816 10.1791 10.8138C9.74685 11.2461 9.23903 11.5873 8.6557 11.8373C8.07237 12.0873 7.45258 12.2123 6.79633 12.2123C6.14008 12.2123 5.52028 12.0873 4.93695 11.8373C4.36403 11.5873 3.86143 11.2461 3.42914 10.8138C2.99685 10.3816 2.6557 9.87374 2.4057 9.29041C2.1557 8.71749 2.0307 8.0977 2.0307 7.43103C2.0307 6.77478 2.1557 6.1602 2.4057 5.58728C2.6557 5.00395 2.99685 4.49613 3.42914 4.06384C3.86143 3.63155 4.36403 3.29041 4.93695 3.04041C5.52028 2.79041 6.14008 2.66541 6.79633 2.66541Z" fill="white"/>
</svg>
