<svg width="35" height="28" viewBox="0 0 35 28" fill="none" xmlns="http://www.w3.org/2000/svg">
<path d="M25.1904 6.53597C25.1449 6.4249 25.0594 6.33234 24.9341 6.2583C24.8088 6.18425 24.6777 6.14723 24.541 6.14723H10.459C10.3223 6.14723 10.1912 6.18425 10.0659 6.2583C9.94059 6.33234 9.85514 6.4249 9.80957 6.53597L7.34863 13.0057C7.28027 13.1908 7.31445 13.3574 7.45117 13.5055C7.58789 13.6536 7.77018 13.7277 7.99805 13.7277H27.002C27.2298 13.7277 27.4121 13.6536 27.5488 13.5055C27.6855 13.3574 27.7197 13.1908 27.6514 13.0057L25.1904 6.53597ZM8.9209 12.617L10.9717 7.25792H24.0283L26.0791 12.617H8.9209ZM32.9492 7.84103H31.377C31.2174 7.84103 31.0636 7.85491 30.9155 7.88268C30.7674 7.91044 30.6364 7.94284 30.5225 7.97986V1.48234C30.5225 1.07509 30.3459 0.728 29.9927 0.441072C29.6395 0.154145 29.2122 0.0106812 28.7109 0.0106812H20.7812C20.5762 0.0106812 20.411 0.0615876 20.2856 0.163401C20.1603 0.265214 20.0977 0.399422 20.0977 0.566025C20.0977 0.714116 20.1603 0.843697 20.2856 0.954765C20.411 1.06583 20.5648 1.12137 20.7471 1.12137H28.7109C28.8249 1.12137 28.9274 1.15376 29.0186 1.21855C29.1097 1.28334 29.1553 1.37127 29.1553 1.48234V9.36822L28.9502 8.89618L27.6172 5.36975C27.4577 4.94398 27.1501 4.59689 26.6943 4.32848C26.2386 4.06006 25.7373 3.92585 25.1904 3.92585H9.80957C9.2627 3.92585 8.76139 4.06006 8.30566 4.32848C7.84993 4.59689 7.54232 4.94398 7.38281 5.36975L5.94727 9.11832V1.48234C5.94727 1.37127 5.99284 1.28334 6.08398 1.21855C6.17513 1.15376 6.27767 1.12137 6.3916 1.12137H14.7314C14.9137 1.12137 15.0732 1.06583 15.21 0.954765C15.3467 0.843697 15.415 0.714116 15.415 0.566025C15.415 0.399422 15.3467 0.265214 15.21 0.163401C15.0732 0.0615876 14.9137 0.0106812 14.7314 0.0106812H6.3916C5.8903 0.0106812 5.46305 0.154145 5.10986 0.441072C4.75667 0.728 4.58008 1.07509 4.58008 1.48234V8.0354C4.44336 7.97986 4.29525 7.93358 4.13574 7.89656C3.97624 7.85954 3.80534 7.84103 3.62305 7.84103H2.05078C1.48112 7.84103 0.996908 8.00763 0.598145 8.34084C0.199381 8.67404 0 9.06278 0 9.50706V12.3393C0 12.7836 0.199381 13.1677 0.598145 13.4916C0.996908 13.8156 1.48112 13.9776 2.05078 13.9776H4.47754V22.2244C4.47754 22.7983 4.72249 23.2981 5.2124 23.7239C5.70231 24.1496 6.28906 24.381 6.97266 24.418V26.5283C6.97266 26.9356 7.14925 27.2827 7.50244 27.5696C7.85563 27.8565 8.28288 28 8.78418 28H11.5186C12.0199 28 12.4471 27.8565 12.8003 27.5696C13.1535 27.2827 13.3301 26.9356 13.3301 26.5283V24.418H21.3623V26.5283C21.3623 26.9356 21.5446 27.2827 21.9092 27.5696C22.2738 27.8565 22.7067 28 23.208 28H25.9082C26.4095 28 26.8424 27.8565 27.207 27.5696C27.5716 27.2827 27.7539 26.9356 27.7539 26.5283V24.418H27.7881C28.54 24.418 29.1838 24.2052 29.7192 23.7794C30.2547 23.3536 30.5225 22.8353 30.5225 22.2244V13.9776H32.9492C33.5189 13.9776 34.0031 13.8156 34.4019 13.4916C34.8006 13.1677 35 12.7836 35 12.3393V9.50706C35 9.06278 34.8006 8.67404 34.4019 8.34084C34.0031 8.00763 33.5189 7.84103 32.9492 7.84103ZM1.36719 12.3393V9.50706C1.36719 9.35897 1.43555 9.22939 1.57227 9.11832C1.70898 9.00725 1.86849 8.95171 2.05078 8.95171H3.62305C3.8737 8.95171 4.07878 9.02113 4.23828 9.15997C4.39779 9.2988 4.47754 9.47003 4.47754 9.67366V12.8669H2.05078C1.86849 12.8669 1.70898 12.816 1.57227 12.7142C1.43555 12.6124 1.36719 12.4874 1.36719 12.3393ZM11.9629 26.5283C11.9629 26.6394 11.923 26.7273 11.8433 26.7921C11.7635 26.8569 11.6553 26.8893 11.5186 26.8893H8.78418C8.67025 26.8893 8.56771 26.8569 8.47656 26.7921C8.38542 26.7273 8.33984 26.6394 8.33984 26.5283V24.418H11.9629V26.5283ZM19.1406 20.1974H16.0303V18.4203C16.0303 18.3648 16.0588 18.3139 16.1157 18.2676C16.1727 18.2213 16.2467 18.1982 16.3379 18.1982H18.8672C18.9355 18.1982 18.9982 18.2213 19.0552 18.2676C19.1121 18.3139 19.1406 18.3648 19.1406 18.4203V20.1974ZM16.0303 23.3073V21.3081H19.1406V23.3073H16.0303ZM26.3867 26.5283C26.3867 26.6394 26.3411 26.7273 26.25 26.7921C26.1589 26.8569 26.0449 26.8893 25.9082 26.8893H23.208C23.0713 26.8893 22.9574 26.8569 22.8662 26.7921C22.7751 26.7273 22.7295 26.6394 22.7295 26.5283V24.418H26.3867V26.5283ZM29.1553 22.2244C29.1553 22.5206 29.0243 22.7751 28.7622 22.988C28.5002 23.2009 28.1755 23.3073 27.7881 23.3073H20.5078V18.4203C20.5078 18.0501 20.3483 17.7354 20.0293 17.4762C19.7103 17.2171 19.3229 17.0875 18.8672 17.0875H16.3379C15.8822 17.0875 15.4891 17.2171 15.1587 17.4762C14.8283 17.7354 14.6631 18.0501 14.6631 18.4203V23.3073H7.21191C6.82454 23.3073 6.49984 23.2009 6.23779 22.988C5.97575 22.7751 5.84473 22.5206 5.84473 22.2244V13.1168L8.68164 5.70295C8.77279 5.49933 8.9209 5.33735 9.12598 5.21703C9.33105 5.0967 9.55892 5.03654 9.80957 5.03654H25.1904C25.4411 5.03654 25.6689 5.0967 25.874 5.21703C26.0791 5.33735 26.2272 5.49933 26.3184 5.70295L29.1553 13.1168V22.2244ZM33.6328 12.3393C33.6328 12.4874 33.5645 12.6124 33.4277 12.7142C33.291 12.816 33.1315 12.8669 32.9492 12.8669H30.5225V9.64589C30.5225 9.46078 30.6079 9.2988 30.7788 9.15997C30.9497 9.02113 31.1491 8.95171 31.377 8.95171H32.9492C33.1315 8.95171 33.291 9.00725 33.4277 9.11832C33.5645 9.22939 33.6328 9.35897 33.6328 9.50706V12.3393ZM11.6553 17.0875H9.19434C8.80697 17.0875 8.47087 17.1986 8.18604 17.4207C7.9012 17.6428 7.75879 17.9205 7.75879 18.2537V19.9198C7.75879 20.253 7.9012 20.5353 8.18604 20.7666C8.47087 20.998 8.80697 21.1137 9.19434 21.1137H11.6553C12.0654 21.1137 12.4129 20.998 12.6978 20.7666C12.9826 20.5353 13.125 20.253 13.125 19.9198V18.2537C13.125 17.9205 12.9826 17.6428 12.6978 17.4207C12.4129 17.1986 12.0654 17.0875 11.6553 17.0875ZM11.7578 19.9198C11.7578 19.9383 11.7464 19.9568 11.7236 19.9753C11.7008 19.9938 11.6781 20.0031 11.6553 20.0031H9.19434C9.17155 20.0031 9.15446 19.9938 9.14307 19.9753C9.13167 19.9568 9.12598 19.9383 9.12598 19.9198V18.2537C9.12598 18.2352 9.13167 18.2213 9.14307 18.2121C9.15446 18.2028 9.17155 18.1982 9.19434 18.1982H11.6553C11.6781 18.1982 11.7008 18.2028 11.7236 18.2121C11.7464 18.2213 11.7578 18.2352 11.7578 18.2537V19.9198ZM26.0107 17.0875H23.5498C23.1396 17.0875 22.7922 17.1986 22.5073 17.4207C22.2225 17.6428 22.0801 17.9205 22.0801 18.2537V19.9198C22.0801 20.253 22.2225 20.5353 22.5073 20.7666C22.7922 20.998 23.1396 21.1137 23.5498 21.1137H26.0107C26.3981 21.1137 26.7342 20.998 27.019 20.7666C27.3039 20.5353 27.4463 20.253 27.4463 19.9198V18.2537C27.4463 17.9205 27.3039 17.6428 27.019 17.4207C26.7342 17.1986 26.3981 17.0875 26.0107 17.0875ZM26.0791 19.9198C26.0791 19.9383 26.0734 19.9568 26.062 19.9753C26.0506 19.9938 26.0335 20.0031 26.0107 20.0031H23.5498C23.527 20.0031 23.5042 19.9938 23.4814 19.9753C23.4587 19.9568 23.4473 19.9383 23.4473 19.9198V18.2537C23.4473 18.2352 23.4587 18.2213 23.4814 18.2121C23.5042 18.2028 23.527 18.1982 23.5498 18.1982H26.0107C26.0335 18.1982 26.0506 18.2028 26.062 18.2121C26.0734 18.2213 26.0791 18.2352 26.0791 18.2537V19.9198ZM17.1582 0.760395C17.2266 0.908487 17.3519 1.0103 17.5342 1.06583C17.7165 1.12137 17.8874 1.12137 18.0469 1.06583C18.2292 1.0103 18.3545 0.913115 18.4229 0.774279C18.4912 0.635443 18.4912 0.491979 18.4229 0.343887C18.3545 0.214307 18.2292 0.117122 18.0469 0.0523319C17.8646 -0.0124582 17.6937 -0.017086 17.5342 0.0384483C17.3519 0.0939827 17.2266 0.195796 17.1582 0.343887C17.0898 0.491979 17.0898 0.630815 17.1582 0.760395Z" fill="#65CEF5"/>
</svg>
