<svg width="31" height="31" viewBox="0 0 31 31" fill="none" xmlns="http://www.w3.org/2000/svg">
<g clip-path="url(#clip0_202_181)">
<path d="M5.78314 7.60828H15.041V8.54578H5.78314V7.60828ZM7.62885 10.0692H15.041V11.0067H7.62885V10.0692ZM11.3495 12.5594H15.041V13.4969H11.3495V12.5594ZM28.8984 18.1259H26.6425C26.9355 17.9696 27.2138 17.7889 27.4775 17.5839C27.7411 17.3788 27.9902 17.1591 28.2245 16.9247C28.9081 16.2411 29.4355 15.455 29.8066 14.5663C30.1777 13.6776 30.3632 12.745 30.3632 11.7684C30.3632 10.7723 30.1679 9.83484 29.7773 8.95593C29.4062 8.07703 28.8935 7.30554 28.2392 6.64148C27.5849 5.97742 26.8085 5.45984 25.9101 5.08875C25.0312 4.69812 24.0937 4.50281 23.0976 4.50281H12.7265V2.6571H8.0976V4.50281H7.62885C6.67181 4.50281 5.74896 4.68835 4.86029 5.05945C3.97162 5.43054 3.18549 5.95789 2.50189 6.64148C1.8183 7.32507 1.29095 8.11121 0.919861 8.99988C0.548767 9.88855 0.36322 10.8114 0.36322 11.7684C0.36322 13.1356 0.705017 14.3807 1.38861 15.5038C2.0722 16.6268 2.97064 17.5009 4.08392 18.1259H1.82806C1.49603 18.1259 1.2226 18.2089 1.00775 18.3749C0.792908 18.5409 0.685486 18.7606 0.685486 19.0341V20.3231C0.685486 20.577 0.792908 20.787 1.00775 20.953C1.2226 21.119 1.49603 21.202 1.82806 21.202H4.08392V28.3212H1.4472V29.2587H29.2792V28.3212H26.6425V21.202H28.8984C29.2304 21.202 29.5038 21.119 29.7187 20.953C29.9335 20.787 30.041 20.577 30.041 20.3231V19.0341C30.041 18.7606 29.9335 18.5409 29.7187 18.3749C29.5038 18.2089 29.2304 18.1259 28.8984 18.1259ZM22.3359 5.44031H23.0976C23.9765 5.44031 24.7968 5.60632 25.5585 5.93835C26.3203 6.27039 26.9892 6.72449 27.5654 7.30066C28.1415 7.87683 28.5956 8.54578 28.9277 9.3075C29.2597 10.0887 29.4257 10.9091 29.4257 11.7684C29.4257 12.6278 29.2646 13.4432 28.9423 14.2147C28.6201 14.9862 28.166 15.6649 27.58 16.2509C26.9745 16.8563 26.2861 17.3202 25.5146 17.6425C24.7431 17.9647 23.9374 18.1259 23.0976 18.1259H22.3359V5.44031ZM17.9999 5.44031H18.9081V11.1532H19.8456V5.44031H21.3984V18.1259H17.9999V5.44031ZM9.0351 3.5946H11.8183V4.50281H9.0351V3.5946ZM1.30072 11.7684C1.30072 10.9286 1.46185 10.1229 1.78412 9.35144C2.10638 8.57996 2.56049 7.90125 3.14642 7.31531C3.75189 6.70984 4.44037 6.24597 5.21185 5.92371C5.98334 5.60144 6.789 5.44031 7.62885 5.44031H17.0624V18.1259H7.62885C6.74994 18.1259 5.92963 17.9598 5.16791 17.6278C4.40619 17.2958 3.73724 16.8417 3.16107 16.2655C2.5849 15.6893 2.1308 15.0204 1.79877 14.2587C1.46674 13.4774 1.30072 12.6473 1.30072 11.7684ZM5.92963 28.3212H4.99213V21.202H5.92963V28.3212ZM23.8593 28.3212H6.86713V21.202H23.8593V28.3212ZM25.7343 28.3212H24.7968V21.202H25.7343V28.3212ZM28.8984 20.2938H1.82806C1.76947 20.2938 1.72064 20.2889 1.68158 20.2792C1.64252 20.2694 1.61322 20.2548 1.59369 20.2352V19.0927C1.61322 19.0927 1.64252 19.0878 1.68158 19.078C1.72064 19.0682 1.76947 19.0634 1.82806 19.0634H28.8984C28.957 19.0634 29.0058 19.0682 29.0449 19.078C29.0839 19.0878 29.1132 19.0927 29.1328 19.0927V20.2352C29.1132 20.2548 29.0839 20.2694 29.0449 20.2792C29.0058 20.2889 28.957 20.2938 28.8984 20.2938Z" fill="#65CEF5"/>
</g>
<defs>
<clipPath id="clip0_202_181">
<rect width="30" height="30" fill="white" transform="matrix(1 0 0 -1 0.36322 30.9579)"/>
</clipPath>
</defs>
</svg>
