<svg width="31" height="31" viewBox="0 0 31 31" fill="none" xmlns="http://www.w3.org/2000/svg">
<g clip-path="url(#clip0_202_168)">
<path d="M15.3632 15.9872H14.9238L15.4218 15.7235C15.6953 15.6063 15.9101 15.4208 16.0663 15.1669C16.2226 14.913 16.3007 14.6395 16.3007 14.3466V13.6727C16.3007 13.3798 16.2275 13.1161 16.081 12.8817C15.9345 12.6473 15.7441 12.4618 15.5097 12.3251V10.5087C15.7441 10.3915 15.9345 10.2108 16.081 9.96667C16.2275 9.72253 16.3007 9.45398 16.3007 9.16101V7.60828C16.3007 7.31531 16.2275 7.04675 16.081 6.80261C15.9345 6.55847 15.7441 6.37781 15.5097 6.26062V4.44421C15.7441 4.3075 15.9345 4.12195 16.081 3.88757C16.2275 3.6532 16.3007 3.38953 16.3007 3.09656V1.54382C16.3007 1.38757 16.247 1.25085 16.1396 1.13367C16.0322 1.01648 15.8906 0.957886 15.7148 0.957886H2.12103C1.94525 0.957886 1.80365 1.01648 1.69623 1.13367C1.58881 1.25085 1.5351 1.38757 1.5351 1.54382V3.09656C1.5351 3.38953 1.60834 3.6532 1.75482 3.88757C1.90131 4.12195 2.09174 4.3075 2.32611 4.44421V6.26062C2.09174 6.37781 1.90131 6.55847 1.75482 6.80261C1.60834 7.04675 1.5351 7.31531 1.5351 7.60828V9.16101C1.5351 9.45398 1.60834 9.72253 1.75482 9.96667C1.90131 10.2108 2.09174 10.3915 2.32611 10.5087V12.3251C2.09174 12.4618 1.90131 12.6473 1.75482 12.8817C1.60834 13.1161 1.5351 13.3798 1.5351 13.6727V14.3466C1.5351 14.6395 1.61322 14.913 1.76947 15.1669C1.92572 15.4208 2.14056 15.6063 2.414 15.7235L2.91205 15.9872H2.4726C1.88666 15.9872 1.38861 16.1923 0.978455 16.6024C0.568298 17.0126 0.36322 17.5009 0.36322 18.0673V30.3719C0.36322 30.5282 0.421814 30.6649 0.539001 30.7821C0.656189 30.8993 0.792908 30.9579 0.949158 30.9579H16.8867C17.0429 30.9579 17.1796 30.8993 17.2968 30.7821C17.414 30.6649 17.4726 30.5282 17.4726 30.3719V18.0673C17.4726 17.5009 17.2675 17.0126 16.8574 16.6024C16.4472 16.1923 15.9492 15.9872 15.3632 15.9872ZM2.94135 14.6688C2.94135 14.6688 2.93646 14.6688 2.9267 14.6688C2.91693 14.6688 2.91205 14.6688 2.91205 14.6688C2.85345 14.6493 2.80463 14.6053 2.76556 14.537C2.7265 14.4686 2.70697 14.4052 2.70697 14.3466V13.6727C2.70697 13.5751 2.74115 13.4921 2.80951 13.4237C2.87787 13.3553 2.96088 13.3212 3.05853 13.3212C3.23431 13.3212 3.37592 13.2626 3.48334 13.1454C3.59076 13.0282 3.64447 12.8915 3.64447 12.7352C3.64447 12.6571 3.6347 12.5839 3.61517 12.5155C3.59564 12.4471 3.55658 12.3837 3.49799 12.3251V10.5087C3.55658 10.4501 3.59564 10.3915 3.61517 10.3329C3.6347 10.2743 3.64447 10.2059 3.64447 10.1278C3.64447 9.95203 3.59076 9.81042 3.48334 9.703C3.37592 9.59558 3.23431 9.54187 3.05853 9.54187C2.96088 9.54187 2.87787 9.50281 2.80951 9.42468C2.74115 9.34656 2.70697 9.25867 2.70697 9.16101V7.60828C2.70697 7.51062 2.74115 7.42273 2.80951 7.3446C2.87787 7.26648 2.96088 7.22742 3.05853 7.22742C3.23431 7.22742 3.37592 7.17371 3.48334 7.06628C3.59076 6.95886 3.64447 6.81726 3.64447 6.64148C3.64447 6.56335 3.6347 6.495 3.61517 6.4364C3.59564 6.37781 3.55658 6.31921 3.49799 6.26062V4.44421C3.55658 4.38562 3.59564 4.32214 3.61517 4.25378C3.6347 4.18542 3.64447 4.11218 3.64447 4.03406C3.64447 3.87781 3.59076 3.74109 3.48334 3.6239C3.37592 3.50671 3.23431 3.44812 3.05853 3.44812C2.96088 3.44812 2.87787 3.41394 2.80951 3.34558C2.74115 3.27722 2.70697 3.19421 2.70697 3.09656V2.12976H15.1288V3.09656C15.1288 3.19421 15.0947 3.27722 15.0263 3.34558C14.9579 3.41394 14.8749 3.44812 14.7773 3.44812C14.6015 3.44812 14.4599 3.50671 14.3525 3.6239C14.2451 3.74109 14.1913 3.87781 14.1913 4.03406C14.1913 4.11218 14.2011 4.18542 14.2206 4.25378C14.2402 4.32214 14.2792 4.38562 14.3378 4.44421V6.26062C14.2792 6.31921 14.2402 6.37781 14.2206 6.4364C14.2011 6.495 14.1913 6.56335 14.1913 6.64148C14.1913 6.81726 14.2451 6.95886 14.3525 7.06628C14.4599 7.17371 14.6015 7.22742 14.7773 7.22742C14.8749 7.22742 14.9579 7.26648 15.0263 7.3446C15.0947 7.42273 15.1288 7.51062 15.1288 7.60828V9.16101C15.1288 9.25867 15.0947 9.34656 15.0263 9.42468C14.9579 9.50281 14.8749 9.54187 14.7773 9.54187C14.6015 9.54187 14.4599 9.59558 14.3525 9.703C14.2451 9.81042 14.1913 9.95203 14.1913 10.1278C14.1913 10.2059 14.2011 10.2743 14.2206 10.3329C14.2402 10.3915 14.2792 10.4501 14.3378 10.5087V12.3251C14.2792 12.3837 14.2402 12.4471 14.2206 12.5155C14.2011 12.5839 14.1913 12.6571 14.1913 12.7352C14.1913 12.8915 14.2451 13.0282 14.3525 13.1454C14.4599 13.2626 14.6015 13.3212 14.7773 13.3212C14.8749 13.3212 14.9579 13.3553 15.0263 13.4237C15.0947 13.4921 15.1288 13.5751 15.1288 13.6727V14.3466C15.1288 14.4052 15.1093 14.4686 15.0703 14.537C15.0312 14.6053 14.9824 14.6493 14.9238 14.6688C14.9238 14.6688 14.9189 14.6688 14.9091 14.6688C14.8994 14.6688 14.8945 14.6688 14.8945 14.6688L12.287 15.9872H5.54877L2.94135 14.6688ZM4.66986 29.786V20.1473H13.166V29.786H4.66986ZM16.3007 29.786H14.3378V19.5614C14.3378 19.4052 14.2792 19.2684 14.162 19.1512C14.0449 19.0341 13.9081 18.9755 13.7519 18.9755H4.08392C3.92767 18.9755 3.79095 19.0341 3.67377 19.1512C3.55658 19.2684 3.49799 19.4052 3.49799 19.5614V29.786H1.5351V18.0673C1.5351 17.8134 1.62787 17.5985 1.81342 17.4227C1.99896 17.2469 2.21869 17.1591 2.4726 17.1591H15.3632C15.6171 17.1591 15.8369 17.2469 16.0224 17.4227C16.2079 17.5985 16.3007 17.8134 16.3007 18.0673V29.786ZM7.80463 21.495H6.83783C6.68158 21.495 6.54486 21.5536 6.42767 21.6708C6.31049 21.788 6.25189 21.9247 6.25189 22.0809C6.25189 22.2372 6.29584 22.369 6.38373 22.4764C6.47162 22.5839 6.58392 22.6473 6.72064 22.6669V23.3114C6.72064 23.4677 6.77924 23.6044 6.89642 23.7216C7.01361 23.8387 7.15033 23.8973 7.30658 23.8973C7.48236 23.8973 7.62396 23.8387 7.73138 23.7216C7.83881 23.6044 7.89252 23.4677 7.89252 23.3114V22.6669C8.02924 22.6473 8.14642 22.5839 8.24408 22.4764C8.34174 22.369 8.39056 22.2372 8.39056 22.0809C8.39056 21.9247 8.33197 21.788 8.21478 21.6708C8.0976 21.5536 7.96088 21.495 7.80463 21.495ZM10.998 21.495H10.0312C9.87494 21.495 9.73822 21.5536 9.62103 21.6708C9.50385 21.788 9.44525 21.9247 9.44525 22.0809C9.44525 22.2372 9.49408 22.369 9.59174 22.4764C9.68939 22.5839 9.80658 22.6473 9.9433 22.6669V23.3114C9.9433 23.4677 9.99701 23.6044 10.1044 23.7216C10.2119 23.8387 10.3535 23.8973 10.5292 23.8973C10.6855 23.8973 10.8222 23.8387 10.9394 23.7216C11.0566 23.6044 11.1152 23.4677 11.1152 23.3114V22.6669C11.2519 22.6473 11.3642 22.5839 11.4521 22.4764C11.54 22.369 11.5839 22.2372 11.5839 22.0809C11.5839 21.9247 11.5253 21.788 11.4081 21.6708C11.291 21.5536 11.1542 21.495 10.998 21.495Z" fill="#65CEF5"/>
</g>
<defs>
<clipPath id="clip0_202_168">
<rect width="30" height="30" fill="white" transform="matrix(1 0 0 -1 0.36322 30.9579)"/>
</clipPath>
</defs>
</svg>
