<svg width="31" height="31" viewBox="0 0 31 31" fill="none" xmlns="http://www.w3.org/2000/svg">
<g clip-path="url(#clip0_202_155)">
<path d="M22.5703 13.7313C22.4531 13.6141 22.3115 13.5555 22.1454 13.5555C21.9794 13.5555 21.8476 13.6141 21.7499 13.7313C21.6328 13.8485 21.5742 13.9852 21.5742 14.1415C21.5742 14.2977 21.6328 14.4344 21.7499 14.5516C21.8476 14.6688 21.9794 14.7274 22.1454 14.7274C22.3115 14.7274 22.4531 14.6688 22.5703 14.5516C22.6874 14.4344 22.746 14.2977 22.746 14.1415C22.746 13.9852 22.6874 13.8485 22.5703 13.7313ZM29.8359 4.79578L26.5253 1.48523C26.1933 1.13367 25.7831 0.957886 25.2949 0.957886C24.8066 0.957886 24.3867 1.13367 24.0351 1.48523L22.9804 2.53992C22.7656 2.75476 22.6191 3.00867 22.541 3.30164C22.4628 3.5946 22.4531 3.88757 22.5117 4.18054L17.707 5.03015C17.1796 5.10828 16.6767 5.27429 16.1982 5.5282C15.7197 5.7821 15.2851 6.10437 14.8945 6.495L13.8691 7.52039C13.537 7.85242 13.2978 8.23816 13.1513 8.67761C13.0048 9.11707 12.9706 9.55164 13.0488 9.98132C12.5995 9.92273 12.1552 9.96179 11.7158 10.0985C11.2763 10.2352 10.8906 10.4794 10.5585 10.8309C10.207 11.163 9.96283 11.5487 9.82611 11.9882C9.68939 12.4276 9.65033 12.8719 9.70892 13.3212C9.27924 13.243 8.84467 13.2772 8.40521 13.4237C7.96576 13.5702 7.58002 13.8094 7.24799 14.1415C6.91595 14.4735 6.6767 14.8544 6.53021 15.2841C6.38373 15.7137 6.33978 16.163 6.39838 16.6317C5.96869 16.5731 5.53412 16.6122 5.09467 16.7489C4.65521 16.8856 4.26947 17.12 3.93744 17.452L1.56439 19.8251C0.763611 20.6259 0.36322 21.5927 0.36322 22.7255C0.36322 23.8583 0.763611 24.8251 1.56439 25.6259L5.69525 29.7567C6.49603 30.5575 7.46283 30.9579 8.59564 30.9579C9.72845 30.9579 10.6953 30.5575 11.496 29.7567L13.8691 27.3837C14.2011 27.0516 14.4355 26.6659 14.5722 26.2264C14.7089 25.787 14.748 25.3524 14.6894 24.9227C15.1581 24.9813 15.6074 24.9374 16.037 24.7909C16.4667 24.6444 16.8476 24.4052 17.1796 24.0731C17.5117 23.7411 17.746 23.3553 17.8828 22.9159C18.0195 22.4764 18.0585 22.0321 17.9999 21.5829C18.4687 21.661 18.9179 21.6268 19.3476 21.4803C19.7773 21.3339 20.1581 21.0946 20.4902 20.7626C20.8417 20.4305 21.0859 20.0448 21.2226 19.6053C21.3593 19.1659 21.3886 18.7216 21.3105 18.2723C21.7792 18.3505 22.2285 18.3163 22.6581 18.1698C23.0878 18.0233 23.4687 17.7841 23.8007 17.452L24.8261 16.4266C25.2167 16.036 25.539 15.6014 25.7929 15.1229C26.0468 14.6444 26.2128 14.1415 26.291 13.6141L27.1406 8.80945C27.4335 8.86804 27.7265 8.85828 28.0195 8.78015C28.3124 8.70203 28.5663 8.55554 28.7812 8.3407L29.8359 7.28601C30.1874 6.93445 30.3632 6.51453 30.3632 6.02625C30.3632 5.53796 30.1874 5.12781 29.8359 4.79578ZM13.0488 26.5634L10.6757 28.9364C10.1093 29.5028 9.42084 29.786 8.61029 29.786C7.79974 29.786 7.11127 29.5028 6.54486 28.9364L2.3847 24.7762C1.8183 24.2098 1.5351 23.5214 1.5351 22.7108C1.5351 21.9003 1.8183 21.2118 2.3847 20.6454L4.75775 18.2723C5.08978 17.9403 5.49994 17.7743 5.98822 17.7743C6.4765 17.7743 6.89642 17.9403 7.24799 18.2723L13.0488 24.0731C13.3808 24.4247 13.5468 24.8446 13.5468 25.3329C13.5468 25.8212 13.3808 26.2313 13.0488 26.5634ZM16.3593 23.2528C16.0078 23.6044 15.5927 23.7802 15.1142 23.7802C14.6357 23.7802 14.2206 23.6044 13.8691 23.2528L8.0683 17.452C7.71674 17.1005 7.54095 16.6854 7.54095 16.2069C7.54095 15.7284 7.71674 15.3134 8.0683 14.9618C8.41986 14.6298 8.8349 14.4637 9.31342 14.4637C9.79193 14.4637 10.207 14.6298 10.5585 14.9618L16.3593 20.7626C16.6913 21.1141 16.8574 21.5292 16.8574 22.0077C16.8574 22.4862 16.6913 22.9012 16.3593 23.2528ZM19.6699 19.9423C19.3183 20.2743 18.9033 20.4403 18.4247 20.4403C17.9462 20.4403 17.5312 20.2743 17.1796 19.9423L11.3788 14.1415C11.0273 13.7899 10.8515 13.3749 10.8515 12.8964C10.8515 12.4178 11.0273 12.0028 11.3788 11.6512C11.7304 11.2997 12.1454 11.1239 12.624 11.1239C13.1025 11.1239 13.5175 11.2997 13.8691 11.6512L19.6699 17.452C20.0019 17.8036 20.1679 18.2186 20.1679 18.6971C20.1679 19.1757 20.0019 19.5907 19.6699 19.9423ZM25.1484 13.4091C25.0703 13.8192 24.9335 14.2098 24.7382 14.5809C24.5429 14.952 24.2988 15.2938 24.0058 15.6063L22.9804 16.6317C22.6484 16.9637 22.2382 17.1298 21.7499 17.1298C21.2617 17.1298 20.8417 16.9637 20.4902 16.6317L14.6894 10.8309C14.3574 10.4794 14.1913 10.0594 14.1913 9.57117C14.1913 9.08289 14.3574 8.67273 14.6894 8.3407L15.7148 7.31531C16.0273 7.02234 16.3691 6.7782 16.7402 6.58289C17.1113 6.38757 17.5019 6.25085 17.912 6.17273L23.1855 5.23523L26.0859 8.13562L25.1484 13.4091ZM29.0156 6.4364L27.9609 7.52039C27.8437 7.61804 27.7021 7.66687 27.5361 7.66687C27.3701 7.66687 27.2285 7.61804 27.1113 7.52039L23.8007 4.18054C23.6835 4.08289 23.6249 3.95105 23.6249 3.78503C23.6249 3.61902 23.6835 3.47742 23.8007 3.36023L24.8847 2.30554C24.9824 2.18835 25.1142 2.12976 25.2802 2.12976C25.4462 2.12976 25.5878 2.18835 25.705 2.30554L29.0156 5.61609C29.1328 5.73328 29.1913 5.87 29.1913 6.02625C29.1913 6.1825 29.1328 6.31921 29.0156 6.4364ZM29.9824 23.1649L27.3749 18.038C27.3163 17.9403 27.2431 17.8622 27.1552 17.8036C27.0673 17.745 26.9648 17.7157 26.8476 17.7157C26.7304 17.7157 26.6279 17.745 26.54 17.8036C26.4521 17.8622 26.3788 17.9403 26.3203 18.038L23.7128 23.1649C23.1269 24.3173 23.1757 25.455 23.8593 26.578C24.5429 27.701 25.539 28.2626 26.8476 28.2626C28.1562 28.2626 29.1523 27.701 29.8359 26.578C30.5195 25.455 30.5683 24.3173 29.9824 23.1649ZM26.8476 27.0907C25.9687 27.0907 25.2997 26.7147 24.8408 25.9628C24.3818 25.2108 24.3574 24.454 24.7675 23.6923L26.8476 19.5907L28.9277 23.6923C29.3183 24.454 29.289 25.2108 28.8398 25.9628C28.3906 26.7147 27.7265 27.0907 26.8476 27.0907ZM20.9003 12.0614L18.0878 9.2489C17.9706 9.13171 17.829 9.07312 17.663 9.07312C17.497 9.07312 17.3554 9.13171 17.2382 9.2489C17.1406 9.34656 17.0917 9.47839 17.0917 9.64441C17.0917 9.81042 17.1406 9.95203 17.2382 10.0692L20.08 12.8817C20.1972 12.9989 20.3339 13.0575 20.4902 13.0575C20.6464 13.0575 20.7831 12.9989 20.9003 12.8817C21.0175 12.7841 21.0761 12.6522 21.0761 12.4862C21.0761 12.3202 21.0175 12.1786 20.9003 12.0614Z" fill="#65CEF5"/>
</g>
<defs>
<clipPath id="clip0_202_155">
<rect width="30" height="30" fill="white" transform="matrix(1 0 0 -1 0.36322 30.9579)"/>
</clipPath>
</defs>
</svg>
