<svg width="41" height="42" viewBox="0 0 41 42" fill="none" xmlns="http://www.w3.org/2000/svg">
<g clip-path="url(#clip0_202_72)">
<path d="M8.05853 16.7026H10.4804C10.6887 16.7026 10.871 16.6245 11.0273 16.4683C11.1835 16.312 11.2617 16.1297 11.2617 15.9214C11.2617 15.687 11.1835 15.4982 11.0273 15.355C10.871 15.2118 10.6887 15.1401 10.4804 15.1401H8.05853C7.8502 15.1401 7.66791 15.2118 7.51166 15.355C7.35541 15.4982 7.27728 15.687 7.27728 15.9214C7.27728 16.1297 7.35541 16.312 7.51166 16.4683C7.66791 16.6245 7.8502 16.7026 8.05853 16.7026ZM25.207 15.9214C25.207 15.687 25.1288 15.4982 24.9726 15.355C24.8163 15.2118 24.6341 15.1401 24.4257 15.1401H14.9726C14.7643 15.1401 14.582 15.2118 14.4257 15.355C14.2695 15.4982 14.1913 15.687 14.1913 15.9214C14.1913 16.1297 14.2695 16.312 14.4257 16.4683C14.582 16.6245 14.7643 16.7026 14.9726 16.7026H24.4257C24.6341 16.7026 24.8163 16.6245 24.9726 16.4683C25.1288 16.312 25.207 16.1297 25.207 15.9214ZM22.8242 19.7104C22.8242 19.4761 22.746 19.2873 22.5898 19.144C22.4335 19.0008 22.2512 18.9292 22.0429 18.9292H19.0351C18.8007 18.9292 18.6119 19.0008 18.4687 19.144C18.3255 19.2873 18.2538 19.4761 18.2538 19.7104C18.2538 19.9188 18.3255 20.1011 18.4687 20.2573C18.6119 20.4136 18.8007 20.4917 19.0351 20.4917H22.0429C22.2512 20.4917 22.4335 20.4136 22.5898 20.2573C22.746 20.1011 22.8242 19.9188 22.8242 19.7104ZM8.05853 20.4917H15.2851C15.4934 20.4917 15.6757 20.4136 15.832 20.2573C15.9882 20.1011 16.0663 19.9188 16.0663 19.7104C16.0663 19.4761 15.9882 19.2873 15.832 19.144C15.6757 19.0008 15.4934 18.9292 15.2851 18.9292H8.05853C7.8502 18.9292 7.66791 19.0008 7.51166 19.144C7.35541 19.2873 7.27728 19.4761 7.27728 19.7104C7.27728 19.9188 7.35541 20.1011 7.51166 20.2573C7.66791 20.4136 7.8502 20.4917 8.05853 20.4917ZM21.4179 23.4995C21.4179 23.2651 21.3398 23.0763 21.1835 22.9331C21.0273 22.7899 20.845 22.7183 20.6367 22.7183H8.05853C7.8502 22.7183 7.66791 22.7899 7.51166 22.9331C7.35541 23.0763 7.27728 23.2651 7.27728 23.4995C7.27728 23.7078 7.35541 23.8901 7.51166 24.0464C7.66791 24.2026 7.8502 24.2808 8.05853 24.2808H20.6367C20.845 24.2808 21.0273 24.2026 21.1835 24.0464C21.3398 23.8901 21.4179 23.7078 21.4179 23.4995ZM14.3476 26.5073C14.1132 26.5073 13.9244 26.5789 13.7812 26.7222C13.638 26.8654 13.5663 27.0542 13.5663 27.2886C13.5663 27.4969 13.638 27.6792 13.7812 27.8354C13.9244 27.9917 14.1132 28.0698 14.3476 28.0698H19.6601C19.8684 28.0698 20.0507 27.9917 20.207 27.8354C20.3632 27.6792 20.4413 27.4969 20.4413 27.2886C20.4413 27.0542 20.3632 26.8654 20.207 26.7222C20.0507 26.5789 19.8684 26.5073 19.6601 26.5073H14.3476ZM8.05853 26.5073C7.8502 26.5073 7.66791 26.5789 7.51166 26.7222C7.35541 26.8654 7.27728 27.0542 7.27728 27.2886C7.27728 27.4969 7.35541 27.6792 7.51166 27.8354C7.66791 27.9917 7.8502 28.0698 8.05853 28.0698H11.3398C11.5481 28.0698 11.7304 27.9917 11.8867 27.8354C12.0429 27.6792 12.121 27.4969 12.121 27.2886C12.121 27.0542 12.0429 26.8654 11.8867 26.7222C11.7304 26.5789 11.5481 26.5073 11.3398 26.5073H8.05853ZM39.3476 6.27295L37.6679 5.1792C37.1471 4.84066 36.5807 4.73649 35.9687 4.8667C35.3567 4.99691 34.8815 5.32243 34.5429 5.84326L30.4413 12.0542C29.7122 11.7157 28.957 11.4552 28.1757 11.2729C27.3945 11.0907 26.6002 10.9995 25.7929 10.9995H21.8867C21.6783 10.9995 21.496 11.0776 21.3398 11.2339C21.1835 11.3901 21.1054 11.5724 21.1054 11.7808C21.1054 11.9891 21.1835 12.1714 21.3398 12.3276C21.496 12.4839 21.6783 12.562 21.8867 12.562H25.7929C26.4439 12.562 27.0885 12.6336 27.7265 12.7769C28.3645 12.9201 28.97 13.1219 29.5429 13.3823L24.582 20.9214C24.5559 20.9474 24.5299 20.993 24.5038 21.0581C24.4778 21.1232 24.4648 21.1818 24.4648 21.2339L23.4101 27.3276C23.358 27.4839 23.3645 27.6336 23.4296 27.7769C23.4947 27.9201 23.5924 28.0308 23.7226 28.1089C23.8007 28.161 23.8723 28.2 23.9374 28.2261C24.0025 28.2521 24.0742 28.2651 24.1523 28.2651C24.2304 28.2651 24.3085 28.2521 24.3867 28.2261C24.4648 28.2 24.5299 28.174 24.582 28.1479L29.8163 24.7495C29.8424 24.7235 29.8749 24.6909 29.914 24.6519C29.9531 24.6128 29.9856 24.5672 30.0117 24.5151L34.1523 18.2261C34.3867 18.7729 34.5559 19.3263 34.6601 19.8862C34.7643 20.4461 34.8163 21.0125 34.8163 21.5854C34.8163 22.8354 34.582 24.0073 34.1132 25.1011C33.6445 26.1948 32.9999 27.1519 32.1796 27.9722C31.3593 28.7925 30.4023 29.437 29.3085 29.9058C28.2148 30.3745 27.0429 30.6089 25.7929 30.6089H18.8007C18.7226 30.6089 18.651 30.6219 18.5859 30.6479C18.5208 30.674 18.4492 30.7131 18.371 30.7651L12.746 34.4761L11.6913 31.1558C11.6393 30.9995 11.5481 30.8693 11.4179 30.7651C11.2877 30.661 11.1314 30.6089 10.9492 30.6089C9.69916 30.6089 8.52728 30.3745 7.43353 29.9058C6.33978 29.437 5.38275 28.7925 4.56244 27.9722C3.74213 27.1519 3.0976 26.1948 2.62885 25.1011C2.1601 24.0073 1.92572 22.8354 1.92572 21.5854C1.92572 20.3354 2.1601 19.1636 2.62885 18.0698C3.0976 16.9761 3.74213 16.019 4.56244 15.1987C5.38275 14.3784 6.33978 13.7339 7.43353 13.2651C8.52728 12.7964 9.69916 12.562 10.9492 12.562H14.8554C15.0637 12.562 15.246 12.4839 15.4023 12.3276C15.5585 12.1714 15.6367 11.9891 15.6367 11.7808C15.6367 11.5724 15.5585 11.3901 15.4023 11.2339C15.246 11.0776 15.0637 10.9995 14.8554 10.9995H10.9492C9.49082 10.9995 8.12364 11.2729 6.8476 11.8198C5.54551 12.3927 4.41921 13.1545 3.46869 14.105C2.51817 15.0555 1.75645 16.1818 1.18353 17.4839C0.636658 18.7599 0.36322 20.1271 0.36322 21.5854C0.36322 22.9917 0.623637 24.3198 1.14447 25.5698C1.6653 26.8198 2.37494 27.9201 3.27338 28.8706C4.17181 29.8211 5.23301 30.5959 6.45697 31.1948C7.68093 31.7677 8.98301 32.0933 10.3632 32.1714L11.5351 35.9214C11.5872 36.0516 11.6523 36.1623 11.7304 36.2534C11.8085 36.3446 11.9127 36.4032 12.0429 36.4292C12.0689 36.4552 12.108 36.4683 12.1601 36.4683C12.2122 36.4683 12.2512 36.4683 12.2773 36.4683C12.3554 36.4683 12.4335 36.4618 12.5117 36.4487C12.5898 36.4357 12.6549 36.4032 12.707 36.3511L19.0351 32.1714H25.7929C27.2512 32.1714 28.6184 31.8979 29.8945 31.3511C31.1966 30.8042 32.3229 30.049 33.2734 29.0854C34.2239 28.1219 34.9856 27.0021 35.5585 25.7261C36.1054 24.424 36.3788 23.0438 36.3788 21.5854C36.3788 20.7261 36.2747 19.8862 36.0663 19.0659C35.858 18.2456 35.5585 17.4578 35.1679 16.7026L39.9726 9.43701C40.3372 8.91618 40.4544 8.34977 40.3242 7.73779C40.194 7.12581 39.8684 6.63753 39.3476 6.27295ZM25.246 25.8433L25.7929 22.6401L27.9413 24.0854L25.246 25.8433ZM29.1523 22.9917L26.3007 21.1167L34.0742 9.39795L36.8867 11.2729L29.1523 22.9917ZM38.6835 8.53857L37.746 9.94482L34.9335 8.10889L35.832 6.70264C35.9622 6.52035 36.1184 6.40967 36.3007 6.37061C36.483 6.33154 36.6523 6.37712 36.8085 6.50732L38.4882 7.60107C38.6445 7.70524 38.7421 7.84847 38.7812 8.03076C38.8203 8.21305 38.7877 8.38232 38.6835 8.53857ZM18.371 12.562C18.5794 12.562 18.7617 12.4839 18.9179 12.3276C19.0742 12.1714 19.1523 11.9891 19.1523 11.7808C19.1523 11.5724 19.0742 11.3901 18.9179 11.2339C18.7617 11.0776 18.5794 10.9995 18.371 10.9995C18.1627 10.9995 17.9804 11.0776 17.8242 11.2339C17.6679 11.3901 17.5898 11.5724 17.5898 11.7808C17.5898 11.9891 17.6679 12.1714 17.8242 12.3276C17.9804 12.4839 18.1627 12.562 18.371 12.562Z" fill="#65CEF5"/>
</g>
<defs>
<clipPath id="clip0_202_72">
<rect width="40" height="41" fill="white" transform="matrix(1 0 0 -1 0.36322 41.1479)"/>
</clipPath>
</defs>
</svg>
