<svg width="41" height="42" viewBox="0 0 41 42" fill="none" xmlns="http://www.w3.org/2000/svg">
<g clip-path="url(#clip0_202_96)">
<path d="M40.3242 21.5854L36.9648 12.562C36.9127 12.4058 36.815 12.2821 36.6718 12.1909C36.5286 12.0998 36.3788 12.0542 36.2226 12.0542H27.3163V7.21045C27.3163 7.00212 27.2382 6.81982 27.082 6.66357C26.9257 6.50732 26.7434 6.4292 26.5351 6.4292H10.5195C10.3111 6.4292 10.1288 6.50732 9.9726 6.66357C9.81635 6.81982 9.73822 7.00212 9.73822 7.21045C9.73822 7.41878 9.81635 7.60107 9.9726 7.75732C10.1288 7.91357 10.3111 7.9917 10.5195 7.9917H25.7538V29.5542H11.0273C10.7148 29.0073 10.2786 28.5581 9.71869 28.2065C9.15879 27.855 8.5403 27.6792 7.86322 27.6792C7.18614 27.6792 6.56765 27.855 6.00775 28.2065C5.44786 28.5581 5.01166 29.0073 4.69916 29.5542H1.92572V26.1167H20.2851C20.4934 26.1167 20.6757 26.0386 20.832 25.8823C20.9882 25.7261 21.0663 25.5438 21.0663 25.3354C21.0663 25.1271 20.9882 24.9448 20.832 24.7886C20.6757 24.6323 20.4934 24.5542 20.2851 24.5542H1.92572V7.9917H4.26947C4.4778 7.9917 4.6601 7.91357 4.81635 7.75732C4.9726 7.60107 5.05072 7.41878 5.05072 7.21045C5.05072 7.00212 4.9726 6.81982 4.81635 6.66357C4.6601 6.50732 4.4778 6.4292 4.26947 6.4292H1.14447C0.936137 6.4292 0.753845 6.50732 0.597595 6.66357C0.441345 6.81982 0.36322 7.00212 0.36322 7.21045V30.3354C0.36322 30.5438 0.441345 30.7261 0.597595 30.8823C0.753845 31.0386 0.936137 31.1167 1.14447 31.1167H4.26947C4.26947 31.1427 4.26947 31.1688 4.26947 31.1948C4.26947 31.2209 4.26947 31.2469 4.26947 31.2729C4.26947 32.2625 4.62103 33.1089 5.32416 33.812C6.02728 34.5151 6.87364 34.8667 7.86322 34.8667C8.8528 34.8667 9.69916 34.5151 10.4023 33.812C11.1054 33.1089 11.457 32.2625 11.457 31.2729C11.457 31.2469 11.457 31.2209 11.457 31.1948C11.457 31.1688 11.457 31.1427 11.457 31.1167H30.0507C30.0507 31.1427 30.0507 31.1688 30.0507 31.1948C30.0507 31.2209 30.0507 31.2469 30.0507 31.2729C30.0507 32.2625 30.4023 33.1089 31.1054 33.812C31.8085 34.5151 32.6549 34.8667 33.6445 34.8667C34.6341 34.8667 35.4804 34.5151 36.1835 33.812C36.8867 33.1089 37.2382 32.2625 37.2382 31.2729C37.2382 31.2469 37.2382 31.2209 37.2382 31.1948C37.2382 31.1688 37.2382 31.1427 37.2382 31.1167H39.582C39.7903 31.1167 39.9726 31.0386 40.1288 30.8823C40.2851 30.7261 40.3632 30.5438 40.3632 30.3354V21.8589C40.3632 21.8328 40.3567 21.7938 40.3437 21.7417C40.3307 21.6896 40.3242 21.6375 40.3242 21.5854ZM7.86322 33.3042C7.2903 33.3042 6.80853 33.1089 6.41791 32.7183C6.02728 32.3276 5.83197 31.8459 5.83197 31.2729C5.83197 31.1948 5.83848 31.1102 5.8515 31.019C5.86452 30.9279 5.88405 30.8433 5.9101 30.7651C5.93614 30.7131 5.96218 30.6545 5.98822 30.5894C6.01426 30.5243 6.02728 30.4657 6.02728 30.4136C6.18353 30.075 6.42442 29.7951 6.74994 29.5737C7.07546 29.3524 7.44655 29.2417 7.86322 29.2417C8.43614 29.2417 8.91791 29.437 9.30853 29.8276C9.69916 30.2183 9.89447 30.7 9.89447 31.2729C9.89447 31.8459 9.69916 32.3276 9.30853 32.7183C8.91791 33.1089 8.43614 33.3042 7.86322 33.3042ZM38.4492 21.0776H30.5976C30.5455 21.0776 30.5064 21.0646 30.4804 21.0386C30.4544 21.0125 30.4413 20.9865 30.4413 20.9604V16.8979C30.4413 16.8459 30.4544 16.8068 30.4804 16.7808C30.5064 16.7547 30.5455 16.7417 30.5976 16.7417H36.8476L38.4492 21.0776ZM33.6445 33.3042C33.0716 33.3042 32.5898 33.1089 32.1992 32.7183C31.8085 32.3276 31.6132 31.8459 31.6132 31.2729C31.6132 30.7 31.8085 30.2183 32.1992 29.8276C32.5898 29.437 33.0716 29.2417 33.6445 29.2417C34.2174 29.2417 34.6992 29.437 35.0898 29.8276C35.4804 30.2183 35.6757 30.7 35.6757 31.2729C35.6757 31.8459 35.4804 32.3276 35.0898 32.7183C34.6992 33.1089 34.2174 33.3042 33.6445 33.3042ZM36.8085 29.5542C36.496 29.0073 36.0598 28.5581 35.4999 28.2065C34.94 27.855 34.3216 27.6792 33.6445 27.6792C32.9674 27.6792 32.3489 27.855 31.789 28.2065C31.2291 28.5581 30.7929 29.0073 30.4804 29.5542H27.3163V13.6167H35.6757L36.2617 15.1792H30.5976C30.1288 15.1792 29.7252 15.3485 29.3867 15.687C29.0481 16.0256 28.8788 16.4292 28.8788 16.8979V20.9604C28.8788 21.4292 29.0481 21.8263 29.3867 22.1519C29.7252 22.4774 30.1288 22.6401 30.5976 22.6401H38.8007V23.812H37.9413C37.733 23.812 37.5507 23.8901 37.3945 24.0464C37.2382 24.2026 37.1601 24.3849 37.1601 24.5933C37.1601 24.8276 37.2382 25.0164 37.3945 25.1597C37.5507 25.3029 37.733 25.3745 37.9413 25.3745H38.8007V29.5542H36.8085ZM7.39447 7.9917C7.49864 7.9917 7.59629 7.97217 7.68744 7.93311C7.77858 7.89404 7.86322 7.83545 7.94135 7.75732C8.01947 7.6792 8.07806 7.59456 8.11713 7.50342C8.15619 7.41227 8.17572 7.31462 8.17572 7.21045C8.17572 7.10628 8.15619 7.00863 8.11713 6.91748C8.07806 6.82633 8.01947 6.7417 7.94135 6.66357C7.86322 6.58545 7.77858 6.52686 7.68744 6.48779C7.59629 6.44873 7.49864 6.4292 7.39447 6.4292C7.2903 6.4292 7.19265 6.44873 7.1015 6.48779C7.01036 6.52686 6.92572 6.58545 6.8476 6.66357C6.76947 6.7417 6.71088 6.82633 6.67181 6.91748C6.63275 7.00863 6.61322 7.10628 6.61322 7.21045C6.61322 7.31462 6.63275 7.41227 6.67181 7.50342C6.71088 7.59456 6.76947 7.6792 6.8476 7.75732C6.92572 7.83545 7.01036 7.89404 7.1015 7.93311C7.19265 7.97217 7.2903 7.9917 7.39447 7.9917ZM23.957 25.8823C24.0351 25.8042 24.0937 25.7196 24.1328 25.6284C24.1718 25.5373 24.1913 25.4396 24.1913 25.3354C24.1913 25.2313 24.1718 25.1336 24.1328 25.0425C24.0937 24.9513 24.0351 24.8667 23.957 24.7886C23.8788 24.7104 23.7942 24.6519 23.7031 24.6128C23.6119 24.5737 23.5143 24.5542 23.4101 24.5542C23.3059 24.5542 23.2083 24.5737 23.1171 24.6128C23.026 24.6519 22.9413 24.7104 22.8632 24.7886C22.7851 24.8667 22.7265 24.9513 22.6874 25.0425C22.6484 25.1336 22.6288 25.2313 22.6288 25.3354C22.6288 25.4396 22.6484 25.5373 22.6874 25.6284C22.7265 25.7196 22.7851 25.8042 22.8632 25.8823C22.9413 25.9604 23.026 26.019 23.1171 26.0581C23.2083 26.0972 23.3059 26.1167 23.4101 26.1167C23.5143 26.1167 23.6119 26.0972 23.7031 26.0581C23.7942 26.019 23.8788 25.9604 23.957 25.8823ZM29.6601 23.812C29.4518 23.812 29.2695 23.8901 29.1132 24.0464C28.957 24.2026 28.8788 24.3849 28.8788 24.5933V24.9448C28.8788 25.1532 28.957 25.3354 29.1132 25.4917C29.2695 25.6479 29.4518 25.7261 29.6601 25.7261C29.8684 25.7261 30.0507 25.6479 30.207 25.4917C30.3632 25.3354 30.4413 25.1532 30.4413 24.9448V24.5933C30.4413 24.3849 30.3632 24.2026 30.207 24.0464C30.0507 23.8901 29.8684 23.812 29.6601 23.812Z" fill="#65CEF5"/>
</g>
<defs>
<clipPath id="clip0_202_96">
<rect width="40" height="41" fill="white" transform="matrix(1 0 0 -1 0.36322 41.1479)"/>
</clipPath>
</defs>
</svg>
